<svg width="69.000000" height="69.000000" viewBox="0 0 69 69" fill="none" xmlns="http://www.w3.org/2000/svg" xmlns:xlink="http://www.w3.org/1999/xlink">
	<desc>
			Created with Pixso.
	</desc>
	<defs/>
	<circle id="Ellipse" cx="34.500000" cy="34.500000" r="34.500000" fill="#7EB693" fill-opacity="1.000000"/>
	<path id="02" d="M31.64 41.29Q33.17 39.33 33.17 35.65L33.17 32.37Q33.13 28.8 31.59 26.89Q31.16 26.35 30.62 25.97Q29.24 24.98 27.15 24.98Q25.09 24.98 23.71 25.95Q23.15 26.35 22.7 26.91Q21.15 28.83 21.15 32.56L21.15 35.83Q21.19 39.41 22.73 41.32Q23.17 41.87 23.71 42.25Q25.09 43.24 27.17 43.24Q29.28 43.24 30.66 42.24Q31.21 41.84 31.64 41.29ZM35.55 43L47.73 43L47.73 40.15L40.09 40.15L44.13 35.89Q45.79 34.07 46.47 32.7Q47.16 31.34 47.16 30.02Q47.16 28.22 46.3 27.03Q46.02 26.63 45.64 26.3Q44.12 24.98 41.37 24.98Q39.69 24.98 38.34 25.65Q38.25 25.69 38.16 25.74Q37.28 26.22 36.64 26.92Q36.26 27.34 35.97 27.85Q35.71 28.29 35.54 28.76Q35.19 29.72 35.19 30.81L38.73 30.81Q38.73 29.56 39.34 28.75Q39.38 28.7 39.42 28.65Q39.67 28.36 39.97 28.17Q40.53 27.82 41.31 27.82Q42.18 27.82 42.74 28.24Q42.89 28.36 43.02 28.5Q43.03 28.52 43.05 28.53Q43.62 29.2 43.62 30.36Q43.62 31.23 43.05 32.19Q42.48 33.16 41.3 34.45L35.55 40.58L35.55 43ZM29.03 28.84Q29.64 29.85 29.64 32.06L29.64 36.28Q29.61 38.37 29.04 39.38Q28.81 39.78 28.47 40.03Q27.95 40.39 27.17 40.39Q26.42 40.39 25.91 40.05Q25.53 39.79 25.27 39.34Q24.68 38.28 24.68 36.11L24.68 31.79Q24.72 29.75 25.31 28.79Q25.55 28.41 25.88 28.18Q26.4 27.83 27.15 27.83Q27.9 27.83 28.42 28.18Q28.79 28.43 29.03 28.84Z" fill="#FFFFFF" fill-opacity="1.000000" fill-rule="evenodd"/>
</svg>
