<svg width="256.000000" height="79.000000" viewBox="0 0 256 79" fill="none" xmlns="http://www.w3.org/2000/svg" xmlns:xlink="http://www.w3.org/1999/xlink">
	<desc>
			Created with Pixso.
	</desc>
	<defs/>
	<rect id="Button" rx="15.500000" width="255.000000" height="78.000000" transform="translate(0.500000 0.500000)" fill="#EFD372" fill-opacity="1.000000"/>
	<path id="View All Product" d="M102.55 47L105.38 47L105.38 32L102.55 32L102.55 47ZM107.85 47L110.68 47L110.68 32L107.85 32L107.85 47ZM149.81 37.7Q148.7 39.16 148.7 41.63Q148.7 44.25 149.83 45.72Q150.38 46.44 151.12 46.81Q151.87 47.19 152.82 47.19Q153.62 47.19 154.27 46.89Q154.99 46.56 155.54 45.87L155.67 47L158.22 47L158.22 32L155.39 32L155.39 37.39Q154.9 36.82 154.28 36.54Q153.63 36.23 152.84 36.23Q151.77 36.23 150.95 36.69Q150.3 37.05 149.81 37.7ZM53.3 33Q53.14 33.3 53.14 33.69Q53.14 34.09 53.3 34.4Q53.4 34.59 53.57 34.75Q53.65 34.83 53.75 34.89Q54.14 35.16 54.72 35.16Q55.29 35.16 55.69 34.89Q55.78 34.83 55.87 34.75Q56.03 34.59 56.13 34.4Q56.3 34.09 56.3 33.69Q56.3 33.31 56.14 33.01Q56.04 32.81 55.87 32.65Q55.8 32.58 55.72 32.52Q55.32 32.24 54.72 32.24Q54.09 32.24 53.69 32.54Q53.62 32.59 53.56 32.65Q53.4 32.81 53.3 33ZM48.74 32.78L45.52 43.47L42.32 32.78L39.06 32.78L44 47L47.05 47L52 32.78L48.74 32.78ZM92.02 44.07L97.16 44.07L98.15 47L101.26 47L95.94 32.78L93.22 32.78L87.93 47L91.05 47L92.02 44.07ZM121.1 47L121.1 41.99L123.67 41.99Q126.2 41.99 127.63 40.78Q128.13 40.36 128.45 39.84Q129.06 38.85 129.06 37.48Q129.06 36.39 128.65 35.49Q128.54 35.25 128.41 35.03Q128.22 34.71 127.97 34.43Q127.4 33.78 126.54 33.36Q125.32 32.78 123.72 32.78L118.18 32.78L118.18 47L121.1 47ZM185.41 36.43L185.41 33.83L182.59 33.83L182.59 36.43L181.05 36.43L181.05 38.5L182.59 38.5L182.59 44.19Q182.62 45.71 183.39 46.46Q184.15 47.19 185.62 47.19Q186.18 47.19 186.72 47.09Q187.03 47.03 187.33 46.94L187.33 44.8Q186.96 44.87 186.5 44.87Q185.86 44.87 185.64 44.61Q185.41 44.36 185.41 43.77L185.41 38.5L187.22 38.5L187.22 36.43L185.41 36.43ZM123.72 39.61L121.1 39.61L121.1 35.15L123.79 35.15Q124.67 35.17 125.24 35.59Q125.37 35.69 125.49 35.81Q125.63 35.96 125.73 36.12Q126.1 36.69 126.1 37.5Q126.1 38.32 125.71 38.83Q125.61 38.96 125.49 39.07Q124.88 39.61 123.72 39.61ZM60.41 46.45Q61.64 47.19 63.32 47.19Q64.64 47.19 65.72 46.69Q66.6 46.28 67.18 45.62Q67.32 45.46 67.44 45.29L66.06 43.73Q65.7 44.19 65.23 44.47Q64.5 44.91 63.51 44.91Q62.73 44.91 62.15 44.58Q61.95 44.45 61.76 44.29Q61.58 44.13 61.44 43.94Q61.04 43.39 60.94 42.63L67.67 42.63L67.67 41.48Q67.67 38.97 66.42 37.6Q66.09 37.24 65.7 36.97Q64.6 36.23 63.01 36.23Q61.83 36.23 60.86 36.69Q60.64 36.79 60.44 36.91Q60.08 37.13 59.78 37.4Q59.11 37.99 58.69 38.85Q58.08 40.1 58.08 41.69L58.08 41.97Q58.08 43.73 58.88 44.97Q59.16 45.4 59.54 45.76Q59.94 46.16 60.41 46.45ZM135.81 39Q136.25 39 136.83 39.08L136.87 36.36Q136.46 36.23 135.99 36.23Q135.41 36.23 134.92 36.45Q134.16 36.8 133.63 37.69L133.56 36.43L130.89 36.43L130.89 47L133.71 47L133.71 40.08Q133.84 39.8 134.05 39.59Q134.63 39 135.81 39ZM138 38.81Q137.39 40.04 137.39 41.61L137.39 41.74Q137.39 44 138.49 45.41Q138.61 45.57 138.76 45.73Q139.16 46.16 139.64 46.47Q140.8 47.19 142.4 47.19Q144.01 47.19 145.15 46.47Q145.64 46.16 146.05 45.72Q146.26 45.49 146.43 45.24Q147.4 43.87 147.4 41.82L147.38 41.1Q147.25 39.23 146.3 38.01Q146.1 37.76 145.88 37.54Q145.5 37.18 145.06 36.91Q143.93 36.23 142.38 36.23Q140.98 36.23 139.89 36.82Q139.81 36.86 139.74 36.91Q139.3 37.17 138.94 37.51Q138.37 38.06 138 38.81ZM177.11 44.61Q176.66 44.91 176 44.91Q175.31 44.91 174.86 44.59Q174.64 44.43 174.48 44.2Q173.99 43.49 173.99 41.86L173.99 41.57Q173.99 39.95 174.49 39.24Q174.67 38.98 174.92 38.81Q175.35 38.52 175.98 38.52Q176.53 38.52 176.94 38.77Q177.12 38.87 177.27 39.03Q177.38 39.15 177.46 39.28Q177.76 39.73 177.77 40.36L180.42 40.36Q180.41 39.03 179.8 38.08Q179.55 37.69 179.21 37.36Q179 37.16 178.76 37Q177.66 36.23 176.03 36.23Q174.4 36.23 173.27 36.98Q172.83 37.28 172.46 37.69Q172.34 37.83 172.23 37.97Q171.16 39.37 171.16 41.58L171.16 41.77Q171.16 44.2 172.36 45.62Q172.41 45.69 172.47 45.75Q172.83 46.15 173.26 46.43Q174.4 47.19 176.05 47.19Q177.12 47.19 178.03 46.8Q178.14 46.75 178.26 46.7Q178.93 46.37 179.41 45.86Q179.64 45.61 179.84 45.31Q180.1 44.89 180.25 44.44Q180.42 43.92 180.42 43.34L177.77 43.34Q177.76 43.8 177.56 44.14Q177.44 44.33 177.27 44.49Q177.19 44.55 177.11 44.61ZM96.37 41.69L92.81 41.69L94.58 36.37L96.37 41.69ZM53.3 47L56.13 47L56.13 36.43L53.3 36.43L53.3 47ZM79.84 36.43L78.46 43.16L76.53 36.43L74.49 36.43L72.56 43.15L71.18 36.43L68.46 36.43L71.15 47L73.51 47L75.51 40.34L77.51 47L79.87 47L82.57 36.43L79.84 36.43ZM165.93 46.64Q166.38 46.36 166.74 45.92L166.82 47L169.47 47L169.47 36.43L166.64 36.43L166.64 43.91Q166.49 44.19 166.27 44.39Q165.7 44.91 164.67 44.91Q163.99 44.91 163.61 44.57Q163.17 44.16 163.17 43.25L163.17 36.43L160.34 36.43L160.34 43.35Q160.36 45.24 161.26 46.21Q161.39 46.36 161.53 46.48Q162.4 47.19 163.85 47.19Q165.06 47.19 165.93 46.64ZM62.06 38.74Q62.47 38.52 63 38.52Q63.77 38.52 64.24 38.89Q64.31 38.96 64.39 39.03Q64.4 39.05 64.41 39.06Q64.87 39.57 64.89 40.48L64.89 40.71L60.97 40.71Q61.11 39.65 61.64 39.08Q61.83 38.88 62.06 38.74ZM140.78 44.12Q140.22 43.32 140.22 41.82Q140.22 40.13 140.78 39.32Q141.03 38.97 141.37 38.77Q141.81 38.52 142.38 38.52Q142.97 38.52 143.41 38.77Q143.75 38.97 144 39.33Q144.58 40.14 144.58 41.61Q144.58 43.34 144 44.13Q143.75 44.47 143.41 44.67Q142.98 44.91 142.4 44.91Q141.78 44.91 141.33 44.64Q141.01 44.44 140.78 44.12ZM152.04 44.11Q151.52 43.32 151.52 41.84Q151.52 39.44 152.6 38.78Q153 38.53 153.57 38.53Q154.28 38.53 154.77 38.87Q155.16 39.14 155.39 39.63L155.39 43.8Q155.15 44.29 154.76 44.56Q154.27 44.91 153.55 44.91Q153.01 44.91 152.61 44.67Q152.28 44.47 152.04 44.11Z" fill="#274C5B" fill-opacity="1.000000" fill-rule="evenodd"/>
	<circle id="Ellipse" cx="207.500000" cy="39.500000" r="9.500000" fill="#335B6B" fill-opacity="1.000000"/>
	<path id="Vector" d="M207.47 36.12L210.87 39.19L207.47 42.25M210.39 39.19L203.51 39.19" stroke="#FFFFFF" stroke-opacity="1.000000" stroke-width="1.000000" stroke-linejoin="round" stroke-linecap="round"/>
</svg>
