<svg width="226.000000" height="80.000000" viewBox="0 0 226 80" fill="none" xmlns="http://www.w3.org/2000/svg" xmlns:xlink="http://www.w3.org/1999/xlink">
	<desc>
			Created with Pixso.
	</desc>
	<defs/>
	<rect id="Button" rx="15.500000" width="225.000000" height="79.000000" transform="translate(0.500000 0.500000)" fill="#274C5B" fill-opacity="1.000000"/>
	<path id="Explore More" d="M72.91 47L75.74 47L75.74 32L72.91 32L72.91 47ZM43.19 40.83L48.82 40.83L48.82 38.54L43.19 38.54L43.19 35.15L49.78 35.15L49.78 32.78L40.26 32.78L40.26 47L49.8 47L49.8 44.64L43.19 44.64L43.19 40.83ZM119.94 43.09L116.29 32.78L112.46 32.78L112.46 47L115.39 47L115.39 43.11L115.1 36.41L118.93 47L120.94 47L124.78 36.4L124.48 43.11L124.48 47L127.42 47L127.42 32.78L123.58 32.78L119.94 43.09ZM69.91 45.72Q71.02 44.25 71.02 41.81L71.02 41.66Q71.02 39.12 69.93 37.68Q69.5 37.1 68.92 36.75Q68.06 36.23 66.9 36.23Q66 36.23 65.29 36.59Q64.69 36.9 64.22 37.46L64.12 36.43L61.5 36.43L61.5 51.06L64.33 51.06L64.33 46.08Q64.71 46.51 65.19 46.78Q65.94 47.19 66.91 47.19Q67.91 47.19 68.69 46.78Q69.39 46.41 69.91 45.72ZM78.23 38.81Q77.63 40.04 77.63 41.61L77.63 41.74Q77.63 44 78.72 45.41Q78.85 45.57 78.99 45.73Q79.39 46.16 79.88 46.47Q81.03 47.19 82.64 47.19Q84.24 47.19 85.39 46.47Q85.88 46.16 86.28 45.72Q86.49 45.49 86.67 45.24Q87.64 43.87 87.64 41.82L87.62 41.1Q87.49 39.23 86.53 38.01Q86.34 37.76 86.11 37.54Q85.73 37.18 85.29 36.91Q84.16 36.23 82.62 36.23Q81.21 36.23 80.12 36.82Q80.05 36.86 79.98 36.91Q79.53 37.17 79.17 37.51Q78.6 38.06 78.23 38.81ZM94.3 39Q94.74 39 95.31 39.08L95.35 36.36Q94.94 36.23 94.47 36.23Q93.89 36.23 93.41 36.45Q92.64 36.8 92.12 37.69L92.04 36.43L89.38 36.43L89.38 47L92.2 47L92.2 40.08Q92.33 39.8 92.53 39.59Q93.11 39 94.3 39ZM98.44 46.45Q99.67 47.19 101.35 47.19Q102.67 47.19 103.75 46.69Q104.62 46.28 105.2 45.62Q105.35 45.46 105.47 45.29L104.08 43.73Q103.73 44.19 103.26 44.47Q102.53 44.91 101.53 44.91Q100.76 44.91 100.18 44.58Q99.97 44.45 99.79 44.29Q99.61 44.13 99.47 43.94Q99.07 43.39 98.97 42.63L105.69 42.63L105.69 41.48Q105.69 38.97 104.45 37.6Q104.12 37.24 103.73 36.97Q102.63 36.23 101.04 36.23Q99.86 36.23 98.89 36.69Q98.67 36.79 98.46 36.91Q98.11 37.13 97.8 37.4Q97.14 37.99 96.72 38.85Q96.1 40.1 96.1 41.69L96.1 41.97Q96.1 43.73 96.91 44.97Q97.19 45.4 97.56 45.76Q97.97 46.16 98.44 46.45ZM129.96 38.81Q129.36 40.04 129.36 41.61L129.36 41.74Q129.36 44 130.45 45.41Q130.58 45.57 130.72 45.73Q131.12 46.16 131.61 46.47Q132.76 47.19 134.37 47.19Q135.97 47.19 137.12 46.47Q137.6 46.16 138.01 45.72Q138.22 45.49 138.4 45.24Q139.37 43.87 139.37 41.82L139.35 41.1Q139.22 39.23 138.26 38.01Q138.07 37.76 137.84 37.54Q137.46 37.18 137.02 36.91Q135.89 36.23 134.35 36.23Q132.94 36.23 131.85 36.82Q131.78 36.86 131.71 36.91Q131.26 37.17 130.9 37.51Q130.33 38.06 129.96 38.81ZM146.03 39Q146.47 39 147.04 39.08L147.08 36.36Q146.67 36.23 146.2 36.23Q145.62 36.23 145.14 36.45Q144.37 36.8 143.85 37.69L143.77 36.43L141.1 36.43L141.1 47L143.93 47L143.93 40.08Q144.06 39.8 144.26 39.59Q144.84 39 146.03 39ZM150.17 46.45Q151.4 47.19 153.08 47.19Q154.39 47.19 155.48 46.69Q156.35 46.28 156.93 45.62Q157.07 45.46 157.2 45.29L155.81 43.73Q155.45 44.19 154.99 44.47Q154.26 44.91 153.26 44.91Q152.49 44.91 151.91 44.58Q151.7 44.45 151.52 44.29Q151.34 44.13 151.2 43.94Q150.8 43.39 150.69 42.63L157.42 42.63L157.42 41.48Q157.42 38.97 156.18 37.6Q155.85 37.24 155.45 36.97Q154.36 36.23 152.77 36.23Q151.58 36.23 150.61 36.69Q150.4 36.79 150.19 36.91Q149.84 37.13 149.53 37.4Q148.87 37.99 148.45 38.85Q147.83 40.1 147.83 41.69L147.83 41.97Q147.83 43.73 148.64 44.97Q148.92 45.4 149.29 45.76Q149.7 46.16 150.17 46.45ZM57.13 36.43L55.35 39.58L53.61 36.43L50.59 36.43L53.58 41.6L50.45 47L53.49 47L55.36 43.67L57.25 47L60.27 47L57.14 41.6L60.15 36.43L57.13 36.43ZM81.02 44.12Q80.45 43.32 80.45 41.82Q80.45 40.13 81.02 39.32Q81.27 38.97 81.61 38.77Q82.04 38.52 82.62 38.52Q83.2 38.52 83.64 38.77Q83.98 38.97 84.24 39.33Q84.82 40.14 84.82 41.61Q84.82 43.34 84.24 44.13Q83.99 44.47 83.65 44.67Q83.21 44.91 82.64 44.91Q82.01 44.91 81.56 44.64Q81.25 44.44 81.02 44.12ZM100.09 38.74Q100.5 38.52 101.03 38.52Q101.79 38.52 102.26 38.89Q102.34 38.96 102.41 39.03Q102.43 39.05 102.44 39.06Q102.9 39.57 102.92 40.48L102.92 40.71L99 40.71Q99.14 39.65 99.66 39.08Q99.86 38.88 100.09 38.74ZM132.75 44.12Q132.18 43.32 132.18 41.82Q132.18 40.13 132.75 39.32Q133 38.97 133.34 38.77Q133.77 38.52 134.35 38.52Q134.93 38.52 135.37 38.77Q135.71 38.97 135.97 39.33Q136.54 40.14 136.54 41.61Q136.54 43.34 135.97 44.13Q135.72 44.47 135.38 44.67Q134.94 44.91 134.37 44.91Q133.74 44.91 133.29 44.64Q132.98 44.44 132.75 44.12ZM151.82 38.74Q152.22 38.52 152.75 38.52Q153.52 38.52 153.99 38.89Q154.07 38.96 154.14 39.03Q154.16 39.05 154.17 39.06Q154.63 39.57 154.65 40.48L154.65 40.71L150.72 40.71Q150.87 39.65 151.39 39.08Q151.59 38.88 151.82 38.74ZM67.67 39.33Q68.19 40.13 68.19 41.6Q68.19 44.02 67.12 44.67Q66.72 44.91 66.17 44.91Q65.36 44.91 64.84 44.52Q64.53 44.27 64.33 43.87L64.33 39.54Q64.51 39.18 64.79 38.95Q65.3 38.53 66.15 38.53Q66.7 38.53 67.1 38.77Q67.43 38.96 67.67 39.33Z" fill="#FFFFFF" fill-opacity="1.000000" fill-rule="evenodd"/>
	<circle id="Ellipse" cx="177.500000" cy="39.500000" r="9.500000" fill="#335B6B" fill-opacity="1.000000"/>
	<path id="Vector" d="M177.47 36.12L180.87 39.19L177.47 42.25M180.39 39.19L173.51 39.19" stroke="#FFFFFF" stroke-opacity="1.000000" stroke-width="1.000000" stroke-linejoin="round" stroke-linecap="round"/>
</svg>
