<svg width="220.000000" height="79.000000" viewBox="0 0 220 79" fill="none" xmlns="http://www.w3.org/2000/svg" xmlns:xlink="http://www.w3.org/1999/xlink">
	<desc>
			Created with Pixso.
	</desc>
	<defs/>
	<rect id="Button" rx="15.500000" width="219.000000" height="78.000000" transform="translate(0.500000 0.500000)" fill="#274C5B" fill-opacity="1.000000"/>
	<path id="Shop Now" d="M67.02 36.51Q66.24 36.85 65.63 37.58L65.63 32L62.81 32L62.81 47L65.63 47L65.63 39.49Q65.84 39.11 66.16 38.89Q66.66 38.53 67.42 38.53Q68.33 38.53 68.72 38.96Q69.11 39.4 69.11 40.31L69.11 47L71.94 47L71.94 40.23Q71.91 37.93 70.76 36.95Q69.91 36.23 68.45 36.23Q67.68 36.23 67.02 36.51ZM57.89 42.35Q58.14 42.72 58.14 43.26Q58.14 43.69 57.95 44.01Q57.81 44.26 57.55 44.45Q56.97 44.88 55.92 44.88Q54.27 44.88 53.59 44.06Q53.11 43.49 53.11 42.52L50.17 42.52Q50.17 43.55 50.56 44.4Q50.7 44.68 50.88 44.94Q50.89 44.96 50.9 44.98Q51.61 46 52.93 46.59Q54.28 47.19 55.92 47.19Q58.28 47.19 59.68 46.14Q60.28 45.69 60.63 45.09Q61.08 44.29 61.08 43.25Q61.08 42.31 60.71 41.54Q60.43 40.95 59.93 40.47Q58.79 39.36 56.29 38.61Q54.93 38.2 54.24 37.73Q53.74 37.39 53.6 36.95Q53.54 36.77 53.54 36.57Q53.54 36.2 53.68 35.91Q53.83 35.6 54.13 35.37Q54.73 34.91 55.8 34.91Q56.92 34.91 57.53 35.46Q57.69 35.59 57.8 35.76Q58.15 36.25 58.15 36.98L61.08 36.98Q61.08 36.1 60.77 35.35Q60.62 35.01 60.42 34.69Q60.28 34.47 60.11 34.28Q59.5 33.57 58.57 33.13Q57.38 32.58 55.85 32.58Q54.34 32.58 53.12 33.09Q51.91 33.6 51.26 34.5Q50.99 34.87 50.84 35.28Q50.61 35.87 50.61 36.56Q50.61 37.22 50.83 37.81Q51.34 39.17 53.03 40.08Q53.92 40.56 55.44 41.05Q56.97 41.55 57.55 41.99Q57.76 42.15 57.89 42.35ZM110.43 47L113.36 47L113.36 32.78L110.44 32.78L110.44 42.15L104.73 32.78L101.8 32.78L101.8 47L104.73 47L104.73 37.64L110.43 47ZM74.23 38.81Q73.63 40.04 73.63 41.61L73.63 41.74Q73.63 44 74.72 45.41Q74.85 45.57 74.99 45.73Q75.39 46.16 75.88 46.47Q77.03 47.19 78.64 47.19Q80.24 47.19 81.39 46.47Q81.87 46.16 82.28 45.72Q82.49 45.49 82.67 45.24Q83.64 43.87 83.64 41.82L83.62 41.1Q83.49 39.23 82.53 38.01Q82.34 37.76 82.11 37.54Q81.73 37.18 81.29 36.91Q80.16 36.23 78.62 36.23Q77.21 36.23 76.12 36.82Q76.05 36.86 75.97 36.91Q75.53 37.17 75.17 37.51Q74.6 38.06 74.23 38.81ZM93.78 45.72Q94.89 44.25 94.89 41.81L94.89 41.66Q94.89 39.12 93.8 37.68Q93.36 37.1 92.79 36.75Q91.93 36.23 90.76 36.23Q89.87 36.23 89.16 36.59Q88.56 36.9 88.09 37.46L87.99 36.43L85.37 36.43L85.37 51.06L88.2 51.06L88.2 46.08Q88.58 46.51 89.06 46.78Q89.81 47.19 90.78 47.19Q91.78 47.19 92.56 46.78Q93.26 46.41 93.78 45.72ZM115.9 38.81Q115.3 40.04 115.3 41.61L115.3 41.74Q115.3 44 116.39 45.41Q116.52 45.57 116.66 45.73Q117.06 46.16 117.55 46.47Q118.7 47.19 120.31 47.19Q121.91 47.19 123.06 46.47Q123.54 46.16 123.95 45.72Q124.16 45.49 124.34 45.24Q125.31 43.87 125.31 41.82L125.29 41.1Q125.16 39.23 124.2 38.01Q124.01 37.76 123.78 37.54Q123.4 37.18 122.96 36.91Q121.83 36.23 120.29 36.23Q118.88 36.23 117.79 36.82Q117.72 36.86 117.64 36.91Q117.2 37.17 116.84 37.51Q116.27 38.06 115.9 38.81ZM137.62 36.43L136.23 43.16L134.31 36.43L132.27 36.43L130.34 43.15L128.96 36.43L126.23 36.43L128.93 47L131.28 47L133.28 40.34L135.29 47L137.65 47L140.35 36.43L137.62 36.43ZM77.01 44.12Q76.45 43.32 76.45 41.82Q76.45 40.13 77.01 39.32Q77.26 38.97 77.61 38.77Q78.04 38.52 78.62 38.52Q79.2 38.52 79.64 38.77Q79.98 38.97 80.24 39.33Q80.81 40.14 80.81 41.61Q80.81 43.34 80.24 44.13Q79.98 44.47 79.65 44.67Q79.21 44.91 78.64 44.91Q78.01 44.91 77.56 44.64Q77.25 44.44 77.01 44.12ZM118.68 44.12Q118.12 43.32 118.12 41.82Q118.12 40.13 118.68 39.32Q118.94 38.97 119.28 38.77Q119.71 38.52 120.29 38.52Q120.87 38.52 121.31 38.77Q121.65 38.97 121.91 39.33Q122.48 40.14 122.48 41.61Q122.48 43.34 121.91 44.13Q121.66 44.47 121.32 44.67Q120.88 44.91 120.31 44.91Q119.68 44.91 119.23 44.64Q118.92 44.44 118.68 44.12ZM91.54 39.33Q92.06 40.13 92.06 41.6Q92.06 44.02 90.99 44.67Q90.59 44.91 90.04 44.91Q89.22 44.91 88.71 44.52Q88.4 44.27 88.2 43.87L88.2 39.54Q88.38 39.18 88.66 38.95Q89.17 38.53 90.02 38.53Q90.57 38.53 90.97 38.77Q91.3 38.96 91.54 39.33Z" fill="#FFFFFF" fill-opacity="1.000000" fill-rule="evenodd"/>
	<circle id="Ellipse" cx="161.000000" cy="39.500000" r="9.500000" fill="#335B6B" fill-opacity="1.000000"/>
	<path id="Vector" d="M160.97 36.12L164.37 39.19L160.97 42.25M163.89 39.19L157.01 39.19" stroke="#FFFFFF" stroke-opacity="1.000000" stroke-width="1.000000" stroke-linejoin="round" stroke-linecap="round"/>
</svg>
