<svg width="82.000000" height="82.000000" viewBox="0 0 82 82" fill="none" xmlns="http://www.w3.org/2000/svg" xmlns:xlink="http://www.w3.org/1999/xlink">
	<desc>
			Created with Pixso.
	</desc>
	<defs/>
	<circle id="Ellipse" cx="41.000000" cy="41.000000" r="41.000000" fill="#FFFFFF" fill-opacity="1.000000"/>
	<path id="25 Nov" d="M40.01 38.04L40.01 35.07L32.69 35.07L35.38 32.02C36.01 31.39 36.58 30.78 37.09 30.22C37.59 29.64 38.02 29.07 38.38 28.52C38.74 27.97 39.01 27.41 39.2 26.85C39.4 26.28 39.49 25.7 39.49 25.1C39.49 24.03 39.27 23.12 38.82 22.37C38.37 21.61 37.72 21.03 36.84 20.62C35.97 20.21 34.9 20.01 33.61 20.01C32.36 20.01 31.26 20.28 30.33 20.82C29.39 21.34 28.66 22.06 28.14 22.95Q27.89 23.37 27.72 23.82Q27.36 24.8 27.36 25.91L31.19 25.91Q31.19 25.06 31.47 24.4C31.66 23.96 31.93 23.61 32.28 23.35C32.63 23.1 33.05 22.98 33.54 22.98C33.99 22.98 34.38 23.07 34.7 23.27C35.01 23.46 35.25 23.75 35.42 24.11Q35.67 24.66 35.67 25.45C35.67 25.78 35.6 26.14 35.45 26.53C35.31 26.91 35.07 27.34 34.75 27.81C34.43 28.28 34 28.83 33.46 29.45L27.73 35.53L27.73 38.04L40.01 38.04ZM42.53 29.31L45.56 30.03C45.76 29.8 46.03 29.58 46.38 29.37C46.73 29.17 47.21 29.07 47.83 29.07Q48.54 29.07 49.04 29.29C49.38 29.43 49.66 29.63 49.88 29.9C50.1 30.16 50.26 30.48 50.37 30.85C50.48 31.22 50.53 31.63 50.53 32.1C50.53 32.54 50.49 32.96 50.41 33.35C50.33 33.74 50.2 34.08 50.02 34.38Q49.89 34.6 49.71 34.77Q49.54 34.95 49.32 35.07C49.03 35.24 48.67 35.32 48.25 35.32C47.81 35.32 47.42 35.23 47.09 35.05C46.75 34.86 46.49 34.6 46.29 34.27C46.1 33.93 45.98 33.52 45.94 33.05L42.13 33.05Q42.14 34.24 42.62 35.21Q42.63 35.23 42.64 35.24C42.98 35.9 43.44 36.45 44.02 36.9Q44.14 36.99 44.26 37.08Q45.05 37.62 46 37.93C46.73 38.17 47.49 38.28 48.27 38.28C49.3 38.28 50.2 38.12 50.97 37.8C51.73 37.47 52.36 37.03 52.86 36.48C53.36 35.92 53.74 35.28 53.98 34.57C54.23 33.86 54.35 33.11 54.35 32.33Q54.35 30.91 53.98 29.8C53.75 29.06 53.39 28.44 52.92 27.93C52.46 27.42 51.89 27.03 51.21 26.76C50.54 26.49 49.76 26.36 48.89 26.36C48.31 26.36 47.78 26.44 47.31 26.6C46.83 26.76 46.49 26.9 46.27 27.03L46.7 23.28L53.75 23.28L53.75 20.27L43.57 20.27L42.53 29.31ZM36.18 61.04L36.18 46.82L33.02 46.82L33.02 56.01L27.64 46.82L24.45 46.82L24.45 61.04L27.64 61.04L27.64 51.85L33.01 61.04L36.18 61.04ZM37.94 55.66L37.94 55.86Q37.94 57.02 38.27 58C38.49 58.65 38.82 59.22 39.25 59.71C39.68 60.19 40.21 60.57 40.84 60.83C41.47 61.1 42.19 61.24 43 61.24C43.81 61.24 44.53 61.1 45.16 60.83C45.78 60.57 46.31 60.19 46.74 59.71C47.17 59.22 47.49 58.65 47.71 58C47.94 57.35 48.05 56.63 48.05 55.86L48.05 55.66Q48.05 54.5 47.71 53.52C47.49 52.86 47.17 52.29 46.74 51.81C46.31 51.33 45.78 50.96 45.15 50.69Q44.21 50.28 42.98 50.28C42.17 50.28 41.45 50.41 40.83 50.69C40.2 50.96 39.68 51.33 39.25 51.81C38.82 52.29 38.49 52.86 38.27 53.52C38.05 54.17 37.94 54.88 37.94 55.66ZM53.58 57.41L51.77 50.47L48.55 50.47L52.06 61.04L55.1 61.04L58.6 50.47L55.4 50.47L53.58 57.41ZM41 55.86L41 55.66C41 55.25 41.03 54.86 41.09 54.51C41.16 54.14 41.28 53.82 41.43 53.54C41.59 53.26 41.8 53.04 42.05 52.89C42.3 52.73 42.61 52.65 42.98 52.65C43.36 52.65 43.67 52.73 43.92 52.89C44.19 53.04 44.39 53.26 44.55 53.54C44.71 53.82 44.82 54.14 44.88 54.51C44.95 54.86 44.99 55.25 44.99 55.66L44.99 55.86C44.99 56.28 44.95 56.67 44.88 57.04C44.82 57.4 44.71 57.72 44.55 57.99Q44.38 58.29 44.14 58.49Q44.04 58.57 43.93 58.64C43.68 58.79 43.37 58.86 43 58.86C42.63 58.86 42.31 58.79 42.05 58.64Q41.94 58.57 41.85 58.49Q41.6 58.29 41.43 57.99C41.28 57.72 41.16 57.4 41.09 57.04C41.03 56.67 41 56.28 41 55.86Z" fill="#274C5B" fill-opacity="1.000000" fill-rule="evenodd"/>
</svg>
