<svg width="220.000000" height="80.000000" viewBox="0 0 220 80" fill="none" xmlns="http://www.w3.org/2000/svg" xmlns:xlink="http://www.w3.org/1999/xlink">
	<desc>
			Created with Pixso.
	</desc>
	<defs/>
	<rect id="Button" rx="15.000000" width="218.000000" height="78.000000" transform="translate(1.000000 1.000000)" fill="#FFFFFF" fill-opacity="1.000000"/>
	<path id="More News" d="M53.75 43.09L50.09 32.78L46.26 32.78L46.26 47L49.19 47L49.19 43.11L48.9 36.41L52.73 47L54.74 47L58.58 36.4L58.29 43.11L58.29 47L61.23 47L61.23 32.78L57.38 32.78L53.75 43.09ZM106.63 47L109.56 47L109.56 32.78L106.64 32.78L106.64 42.15L100.92 32.78L97.99 32.78L97.99 47L100.92 47L100.92 37.64L106.63 47ZM63.76 38.81Q63.16 40.04 63.16 41.61L63.16 41.74Q63.16 44 64.25 45.41Q64.38 45.57 64.52 45.73Q64.93 46.16 65.41 46.47Q66.56 47.19 68.17 47.19Q69.77 47.19 70.92 46.47Q71.41 46.16 71.81 45.72Q72.02 45.49 72.2 45.24Q73.17 43.87 73.17 41.82L73.15 41.1Q73.02 39.23 72.06 38.01Q71.87 37.76 71.64 37.54Q71.26 37.18 70.83 36.91Q69.69 36.23 68.15 36.23Q66.74 36.23 65.65 36.82Q65.58 36.86 65.51 36.91Q65.07 37.17 64.7 37.51Q64.13 38.06 63.76 38.81ZM79.83 39Q80.27 39 80.84 39.08L80.88 36.36Q80.47 36.23 80 36.23Q79.42 36.23 78.94 36.45Q78.17 36.8 77.65 37.69L77.57 36.43L74.91 36.43L74.91 47L77.73 47L77.73 40.08Q77.86 39.8 78.07 39.59Q78.65 39 79.83 39ZM83.97 46.45Q85.2 47.19 86.88 47.19Q88.2 47.19 89.28 46.69Q90.15 46.28 90.73 45.62Q90.88 45.46 91 45.29L89.61 43.73Q89.26 44.19 88.79 44.47Q88.06 44.91 87.07 44.91Q86.29 44.91 85.71 44.58Q85.5 44.45 85.32 44.29Q85.14 44.13 85 43.94Q84.6 43.39 84.5 42.63L91.23 42.63L91.23 41.48Q91.23 38.97 89.98 37.6Q89.65 37.24 89.26 36.97Q88.16 36.23 86.57 36.23Q85.39 36.23 84.42 36.69Q84.2 36.79 83.99 36.91Q83.64 37.13 83.33 37.4Q82.67 37.99 82.25 38.85Q81.64 40.1 81.64 41.69L81.64 41.97Q81.64 43.73 82.44 44.97Q82.72 45.4 83.1 45.76Q83.5 46.16 83.97 46.45ZM113.88 46.45Q115.11 47.19 116.79 47.19Q118.11 47.19 119.19 46.69Q120.07 46.28 120.65 45.62Q120.79 45.46 120.91 45.29L119.53 43.73Q119.17 44.19 118.7 44.47Q117.97 44.91 116.98 44.91Q116.2 44.91 115.62 44.58Q115.42 44.45 115.23 44.29Q115.05 44.13 114.91 43.94Q114.51 43.39 114.41 42.63L121.14 42.63L121.14 41.48Q121.14 38.97 119.89 37.6Q119.56 37.24 119.17 36.97Q118.07 36.23 116.48 36.23Q115.3 36.23 114.33 36.69Q114.11 36.79 113.91 36.91Q113.55 37.13 113.25 37.4Q112.59 37.99 112.16 38.85Q111.55 40.1 111.55 41.69L111.55 41.97Q111.55 43.73 112.35 44.97Q112.63 45.4 113.01 45.76Q113.41 46.16 113.88 46.45ZM143.09 43.73Q143.16 43.89 143.16 44.08Q143.16 44.3 143.07 44.49Q142.97 44.71 142.74 44.88Q142.33 45.19 141.52 45.19Q140.65 45.19 140.13 44.79Q139.98 44.67 139.86 44.51Q139.6 44.16 139.58 43.64L136.9 43.64Q136.9 43.97 136.97 44.29Q137.1 44.88 137.49 45.42Q137.54 45.49 137.6 45.57Q138.17 46.29 139.1 46.72Q140.13 47.19 141.46 47.19Q143.42 47.19 144.66 46.3Q145.37 45.79 145.67 45.11Q145.9 44.58 145.9 43.96Q145.9 43.2 145.59 42.61Q145.06 41.63 143.67 41.12Q142.94 40.85 141.89 40.64Q140.84 40.43 140.39 40.14Q140.11 39.96 140.01 39.71Q139.95 39.56 139.95 39.39Q139.95 39.15 140.03 38.95Q140.13 38.74 140.34 38.57Q140.73 38.25 141.44 38.25Q142.27 38.25 142.66 38.64Q142.8 38.78 142.89 38.95Q143.05 39.25 143.05 39.64L145.87 39.64Q145.87 38.91 145.59 38.31Q145.29 37.67 144.67 37.18Q143.46 36.23 141.45 36.23Q139.63 36.23 138.48 37.11Q138.44 37.14 138.4 37.18Q137.71 37.73 137.43 38.44Q137.23 38.94 137.23 39.52Q137.23 40.08 137.44 40.56Q138.11 42.12 141 42.73Q142.13 42.96 142.65 43.26Q142.97 43.45 143.09 43.73ZM133.32 36.43L131.93 43.16L130 36.43L127.96 36.43L126.03 43.15L124.65 36.43L121.93 36.43L124.62 47L126.98 47L128.98 40.34L130.98 47L133.35 47L136.04 36.43L133.32 36.43ZM66.55 44.12Q65.98 43.32 65.98 41.82Q65.98 40.13 66.55 39.32Q66.8 38.97 67.14 38.77Q67.57 38.52 68.15 38.52Q68.73 38.52 69.17 38.77Q69.52 38.97 69.77 39.33Q70.35 40.14 70.35 41.61Q70.35 43.34 69.77 44.13Q69.52 44.47 69.18 44.67Q68.75 44.91 68.17 44.91Q67.55 44.91 67.09 44.64Q66.78 44.44 66.55 44.12ZM85.62 38.74Q86.03 38.52 86.56 38.52Q87.33 38.52 87.79 38.89Q87.87 38.96 87.94 39.03Q87.96 39.05 87.97 39.06Q88.43 39.57 88.45 40.48L88.45 40.71L84.53 40.71Q84.67 39.65 85.2 39.08Q85.39 38.88 85.62 38.74ZM115.53 38.74Q115.94 38.52 116.47 38.52Q117.24 38.52 117.71 38.89Q117.79 38.96 117.86 39.03Q117.87 39.05 117.88 39.06Q118.35 39.57 118.36 40.48L118.36 40.71L114.44 40.71Q114.59 39.65 115.11 39.08Q115.3 38.88 115.53 38.74Z" fill="#274C5B" fill-opacity="1.000000" fill-rule="evenodd"/>
	<circle id="Ellipse 60" cx="165.500000" cy="39.500000" r="9.500000" fill="#335B6B" fill-opacity="1.000000"/>
	<path id="Vector" d="M165.47 36.12L168.87 39.19L165.47 42.25M168.39 39.19L161.51 39.19" stroke="#FFFFFF" stroke-opacity="1.000000" stroke-width="1.000000" stroke-linejoin="round" stroke-linecap="round"/>
	<rect id="Button" rx="15.000000" width="218.000000" height="78.000000" transform="translate(1.000000 1.000000)" stroke="#274C5B" stroke-opacity="1.000000" stroke-width="2.000000"/>
</svg>
