<svg width="220.000000" height="80.000000" viewBox="0 0 220 80" fill="none" xmlns="http://www.w3.org/2000/svg" xmlns:xlink="http://www.w3.org/1999/xlink">
	<desc>
			Created with Pixso.
	</desc>
	<defs/>
	<rect id="Button" rx="15.500000" width="219.000000" height="79.000000" transform="translate(0.500000 0.500000)" fill="#EFD372" fill-opacity="1.000000"/>
	<path id="Read More" d="M83.04 37.7Q81.94 39.16 81.94 41.63Q81.94 44.25 83.06 45.72Q83.62 46.44 84.35 46.81Q85.11 47.19 86.06 47.19Q86.85 47.19 87.51 46.89Q88.22 46.56 88.77 45.87L88.91 47L91.46 47L91.46 32L88.63 32L88.63 37.39Q88.14 36.82 87.52 36.54Q86.87 36.23 86.08 36.23Q85 36.23 84.18 36.69Q83.53 37.05 83.04 37.7ZM51.19 41.79L53.53 41.79L56.19 47L59.34 47L59.34 46.86L56.26 41.05Q57.54 40.47 58.17 39.5Q58.8 38.53 58.8 37.07Q58.8 35.64 58.14 34.67Q57.85 34.24 57.43 33.9Q56.07 32.78 53.55 32.78L48.26 32.78L48.26 47L51.19 47L51.19 41.79ZM106.29 43.09L102.64 32.78L98.81 32.78L98.81 47L101.74 47L101.74 43.11L101.45 36.41L105.28 47L107.29 47L111.13 36.4L110.83 43.11L110.83 47L113.77 47L113.77 32.78L109.93 32.78L106.29 43.09ZM53.56 39.42L51.19 39.42L51.19 35.15L53.55 35.15Q54.73 35.15 55.3 35.73Q55.39 35.81 55.46 35.91Q55.87 36.46 55.87 37.31Q55.87 38.06 55.52 38.57Q55.41 38.72 55.27 38.86Q55.25 38.87 55.24 38.88Q54.63 39.42 53.56 39.42ZM62.8 46.45Q64.03 47.19 65.71 47.19Q67.02 47.19 68.11 46.69Q68.98 46.28 69.56 45.62Q69.7 45.46 69.83 45.29L68.44 43.73Q68.08 44.19 67.62 44.47Q66.89 44.91 65.89 44.91Q65.12 44.91 64.54 44.58Q64.33 44.45 64.15 44.29Q63.97 44.13 63.83 43.94Q63.42 43.39 63.32 42.63L70.05 42.63L70.05 41.48Q70.05 38.97 68.81 37.6Q68.48 37.24 68.08 36.97Q66.99 36.23 65.39 36.23Q64.21 36.23 63.24 36.69Q63.03 36.79 62.82 36.91Q62.47 37.13 62.16 37.4Q61.5 37.99 61.08 38.85Q60.46 40.1 60.46 41.69L60.46 41.97Q60.46 43.73 61.27 44.97Q61.55 45.4 61.92 45.76Q62.33 46.16 62.8 46.45ZM77.49 46.05Q77.58 46.61 77.78 47L80.63 47L80.63 46.83Q80.22 46.06 80.21 44.55L80.21 39.97Q80.21 38.68 79.6 37.81Q79.38 37.48 79.06 37.21Q79.03 37.19 79 37.17Q77.87 36.23 75.96 36.23Q74.67 36.23 73.64 36.68Q72.6 37.12 72.03 37.9Q71.68 38.4 71.55 38.94Q71.47 39.26 71.47 39.6L74.29 39.6Q74.29 39.21 74.47 38.93Q74.56 38.78 74.7 38.66Q75.1 38.32 75.81 38.32Q76.56 38.32 76.94 38.7Q76.97 38.73 77 38.76Q77.02 38.79 77.04 38.81Q77.38 39.24 77.38 39.93L77.38 40.54L76.08 40.54Q73.72 40.55 72.48 41.45Q71.99 41.8 71.69 42.27Q71.23 43.01 71.23 44.03Q71.23 44.72 71.5 45.29Q71.75 45.85 72.25 46.29Q72.5 46.51 72.78 46.67Q73.65 47.19 74.83 47.19Q75.81 47.19 76.57 46.78Q77.08 46.51 77.49 46.05ZM116.31 38.81Q115.71 40.04 115.71 41.61L115.71 41.74Q115.71 44 116.8 45.41Q116.93 45.57 117.07 45.73Q117.47 46.16 117.96 46.47Q119.11 47.19 120.72 47.19Q122.32 47.19 123.47 46.47Q123.95 46.16 124.36 45.72Q124.57 45.49 124.75 45.24Q125.72 43.87 125.72 41.82L125.7 41.1Q125.57 39.23 124.61 38.01Q124.42 37.76 124.19 37.54Q123.81 37.18 123.37 36.91Q122.24 36.23 120.7 36.23Q119.29 36.23 118.2 36.82Q118.13 36.86 118.06 36.91Q117.61 37.17 117.25 37.51Q116.68 38.06 116.31 38.81ZM132.38 39Q132.82 39 133.39 39.08L133.43 36.36Q133.02 36.23 132.55 36.23Q131.97 36.23 131.49 36.45Q130.72 36.8 130.2 37.69L130.12 36.43L127.45 36.43L127.45 47L130.28 47L130.28 40.08Q130.41 39.8 130.61 39.59Q131.19 39 132.38 39ZM136.52 46.45Q137.75 47.19 139.43 47.19Q140.75 47.19 141.83 46.69Q142.7 46.28 143.28 45.62Q143.42 45.46 143.55 45.29L142.16 43.73Q141.8 44.19 141.34 44.47Q140.61 44.91 139.61 44.91Q138.84 44.91 138.26 44.58Q138.05 44.45 137.87 44.29Q137.69 44.13 137.55 43.94Q137.14 43.39 137.04 42.63L143.77 42.63L143.77 41.48Q143.77 38.97 142.53 37.6Q142.2 37.24 141.8 36.97Q140.71 36.23 139.11 36.23Q137.93 36.23 136.96 36.69Q136.75 36.79 136.54 36.91Q136.19 37.13 135.88 37.4Q135.22 37.99 134.8 38.85Q134.18 40.1 134.18 41.69L134.18 41.97Q134.18 43.73 134.99 44.97Q135.27 45.4 135.64 45.76Q136.05 46.16 136.52 46.45ZM64.45 38.74Q64.85 38.52 65.38 38.52Q66.15 38.52 66.62 38.89Q66.7 38.96 66.77 39.03Q66.78 39.05 66.8 39.06Q67.26 39.57 67.28 40.48L67.28 40.71L63.35 40.71Q63.5 39.65 64.02 39.08Q64.21 38.88 64.45 38.74ZM119.1 44.12Q118.53 43.32 118.53 41.82Q118.53 40.13 119.1 39.32Q119.35 38.97 119.69 38.77Q120.12 38.52 120.7 38.52Q121.28 38.52 121.72 38.77Q122.06 38.97 122.32 39.33Q122.89 40.14 122.89 41.61Q122.89 43.34 122.32 44.13Q122.07 44.47 121.73 44.67Q121.29 44.91 120.72 44.91Q120.09 44.91 119.64 44.64Q119.33 44.44 119.1 44.12ZM138.17 38.74Q138.57 38.52 139.1 38.52Q139.87 38.52 140.34 38.89Q140.42 38.96 140.49 39.03Q140.5 39.05 140.52 39.06Q140.98 39.57 141 40.48L141 40.71L137.07 40.71Q137.22 39.65 137.74 39.08Q137.93 38.88 138.17 38.74ZM85.28 44.11Q84.76 43.32 84.76 41.84Q84.76 39.44 85.83 38.78Q86.24 38.53 86.8 38.53Q87.52 38.53 88 38.87Q88.39 39.14 88.63 39.63L88.63 43.8Q88.39 44.29 88 44.56Q87.51 44.91 86.78 44.91Q86.24 44.91 85.84 44.67Q85.51 44.47 85.28 44.11ZM76.27 44.9Q75.88 45.03 75.44 45.03Q74.85 45.03 74.49 44.74Q74.46 44.72 74.43 44.69Q74.27 44.54 74.18 44.36Q74.06 44.12 74.06 43.82L74.07 43.66Q74.11 43.2 74.34 42.89Q74.86 42.19 76.32 42.19L77.38 42.19L77.38 44.01Q77.33 44.09 77.28 44.17Q77.03 44.53 76.59 44.75Q76.44 44.84 76.27 44.9Z" fill="#274C5B" fill-opacity="1.000000" fill-rule="evenodd"/>
	<circle id="Ellipse 60" cx="163.500000" cy="39.500000" r="9.500000" fill="#335B6B" fill-opacity="1.000000"/>
	<path id="Vector" d="M163.47 36.12L166.87 39.19L163.47 42.25M166.39 39.19L159.51 39.19" stroke="#FFFFFF" stroke-opacity="1.000000" stroke-width="1.000000" stroke-linejoin="round" stroke-linecap="round"/>
</svg>
