<svg width="126.000000" height="23.000000" viewBox="0 0 126 23" fill="none" xmlns="http://www.w3.org/2000/svg" xmlns:xlink="http://www.w3.org/1999/xlink">
	<desc>
			Created with Pixso.
	</desc>
	<defs/>
	<path id="Read More" d="M36.04 9.7Q34.94 11.16 34.94 13.63Q34.94 16.25 36.06 17.72Q36.62 18.44 37.35 18.81Q38.11 19.19 39.06 19.19Q39.85 19.19 40.51 18.89Q41.22 18.56 41.77 17.87L41.91 19L44.46 19L44.46 4L41.63 4L41.63 9.39Q41.14 8.82 40.52 8.54Q39.87 8.23 39.08 8.23Q38 8.23 37.18 8.69Q36.53 9.05 36.04 9.7ZM4.19 13.79L6.53 13.79L9.19 19L12.34 19L12.34 18.86L9.26 13.05Q10.54 12.47 11.17 11.5Q11.8 10.53 11.8 9.07Q11.8 7.64 11.14 6.67Q10.85 6.24 10.43 5.9Q9.07 4.78 6.55 4.78L1.26 4.78L1.26 19L4.19 19L4.19 13.79ZM59.29 15.09L55.64 4.78L51.81 4.78L51.81 19L54.74 19L54.74 15.11L54.45 8.41L58.28 19L60.29 19L64.13 8.4L63.83 15.11L63.83 19L66.77 19L66.77 4.78L62.92 4.78L59.29 15.09ZM6.56 11.42L4.19 11.42L4.19 7.15L6.55 7.15Q7.73 7.15 8.3 7.73Q8.39 7.81 8.46 7.91Q8.87 8.46 8.87 9.31Q8.87 10.06 8.52 10.57Q8.41 10.72 8.27 10.86Q8.25 10.87 8.24 10.88Q7.63 11.42 6.56 11.42ZM15.8 18.45Q17.03 19.19 18.71 19.19Q20.02 19.19 21.11 18.69Q21.98 18.28 22.56 17.62Q22.7 17.46 22.83 17.29L21.44 15.73Q21.08 16.19 20.62 16.47Q19.89 16.91 18.89 16.91Q18.12 16.91 17.54 16.58Q17.33 16.45 17.15 16.29Q16.97 16.13 16.83 15.94Q16.42 15.39 16.32 14.63L23.05 14.63L23.05 13.48Q23.05 10.97 21.81 9.6Q21.48 9.24 21.08 8.97Q19.99 8.23 18.39 8.23Q17.21 8.23 16.24 8.69Q16.03 8.79 15.82 8.91Q15.47 9.13 15.16 9.4Q14.5 9.99 14.08 10.85Q13.46 12.1 13.46 13.69L13.46 13.97Q13.46 15.73 14.27 16.97Q14.55 17.4 14.92 17.76Q15.33 18.16 15.8 18.45ZM30.49 18.05Q30.58 18.61 30.78 19L33.63 19L33.63 18.83Q33.22 18.06 33.21 16.55L33.21 11.97Q33.21 10.68 32.6 9.81Q32.38 9.48 32.06 9.21Q32.03 9.19 32 9.17Q30.87 8.23 28.96 8.23Q27.67 8.23 26.64 8.68Q25.6 9.12 25.03 9.9Q24.68 10.4 24.55 10.94Q24.47 11.26 24.47 11.6L27.29 11.6Q27.29 11.21 27.47 10.93Q27.56 10.78 27.7 10.66Q28.1 10.32 28.81 10.32Q29.56 10.32 29.94 10.7Q29.97 10.73 30 10.76Q30.02 10.79 30.04 10.81Q30.38 11.24 30.38 11.93L30.38 12.54L29.08 12.54Q26.72 12.55 25.48 13.45Q24.99 13.8 24.69 14.27Q24.23 15.01 24.23 16.03Q24.23 16.72 24.5 17.29Q24.75 17.85 25.25 18.29Q25.5 18.51 25.78 18.67Q26.65 19.19 27.83 19.19Q28.81 19.19 29.57 18.78Q30.08 18.51 30.49 18.05ZM69.31 10.81Q68.71 12.04 68.71 13.61L68.71 13.74Q68.71 16 69.8 17.41Q69.93 17.57 70.07 17.73Q70.47 18.16 70.96 18.47Q72.11 19.19 73.72 19.19Q75.32 19.19 76.47 18.47Q76.95 18.16 77.36 17.72Q77.57 17.49 77.75 17.24Q78.72 15.87 78.72 13.82L78.7 13.1Q78.57 11.23 77.61 10.01Q77.42 9.76 77.19 9.54Q76.81 9.18 76.37 8.91Q75.24 8.23 73.7 8.23Q72.29 8.23 71.2 8.82Q71.13 8.86 71.05 8.91Q70.61 9.17 70.25 9.51Q69.68 10.06 69.31 10.81ZM85.38 11Q85.82 11 86.39 11.08L86.43 8.36Q86.02 8.23 85.55 8.23Q84.97 8.23 84.49 8.45Q83.72 8.8 83.2 9.69L83.12 8.43L80.45 8.43L80.45 19L83.28 19L83.28 12.08Q83.41 11.8 83.61 11.59Q84.19 11 85.38 11ZM89.52 18.45Q90.75 19.19 92.43 19.19Q93.75 19.19 94.83 18.69Q95.7 18.28 96.28 17.62Q96.42 17.46 96.55 17.29L95.16 15.73Q94.8 16.19 94.34 16.47Q93.61 16.91 92.61 16.91Q91.84 16.91 91.26 16.58Q91.05 16.45 90.87 16.29Q90.69 16.13 90.55 15.94Q90.14 15.39 90.04 14.63L96.77 14.63L96.77 13.48Q96.77 10.97 95.53 9.6Q95.2 9.24 94.8 8.97Q93.71 8.23 92.11 8.23Q90.93 8.23 89.96 8.69Q89.75 8.79 89.54 8.91Q89.19 9.13 88.88 9.4Q88.22 9.99 87.8 10.85Q87.18 12.1 87.18 13.69L87.18 13.97Q87.18 15.73 87.99 16.97Q88.27 17.4 88.64 17.76Q89.05 18.16 89.52 18.45ZM17.45 10.74Q17.85 10.52 18.38 10.52Q19.15 10.52 19.62 10.89Q19.7 10.96 19.77 11.03Q19.78 11.05 19.8 11.06Q20.26 11.57 20.28 12.48L20.28 12.71L16.35 12.71Q16.5 11.65 17.02 11.08Q17.21 10.88 17.45 10.74ZM72.09 16.12Q71.53 15.32 71.53 13.82Q71.53 12.13 72.09 11.32Q72.34 10.97 72.69 10.77Q73.12 10.52 73.7 10.52Q74.28 10.52 74.72 10.77Q75.06 10.97 75.32 11.33Q75.89 12.14 75.89 13.61Q75.89 15.34 75.32 16.13Q75.06 16.47 74.73 16.67Q74.29 16.91 73.72 16.91Q73.09 16.91 72.64 16.64Q72.33 16.44 72.09 16.12ZM91.17 10.74Q91.57 10.52 92.1 10.52Q92.87 10.52 93.34 10.89Q93.42 10.96 93.49 11.03Q93.5 11.05 93.52 11.06Q93.98 11.57 94 12.48L94 12.71L90.07 12.71Q90.22 11.65 90.74 11.08Q90.93 10.88 91.17 10.74ZM38.28 16.11Q37.76 15.32 37.76 13.84Q37.76 11.44 38.83 10.78Q39.24 10.53 39.8 10.53Q40.52 10.53 41 10.87Q41.39 11.14 41.63 11.63L41.63 15.8Q41.39 16.29 41 16.56Q40.51 16.91 39.78 16.91Q39.24 16.91 38.84 16.67Q38.51 16.47 38.28 16.11ZM29.27 16.9Q28.88 17.03 28.44 17.03Q27.85 17.03 27.49 16.74Q27.46 16.72 27.43 16.69Q27.27 16.54 27.18 16.36Q27.06 16.12 27.06 15.82L27.07 15.66Q27.11 15.2 27.34 14.89Q27.86 14.19 29.32 14.19L30.38 14.19L30.38 16.01Q30.33 16.09 30.28 16.17Q30.03 16.53 29.59 16.75Q29.44 16.84 29.27 16.9Z" fill="#274C5B" fill-opacity="1.000000" fill-rule="evenodd"/>
	<circle id="Ellipse 60" cx="116.500000" cy="11.500000" r="9.500000" fill="#335B6B" fill-opacity="1.000000"/>
	<path id="Vector" d="M116.47 8.12L119.87 11.19L116.47 14.25M119.39 11.19L112.51 11.19" stroke="#FFFFFF" stroke-opacity="1.000000" stroke-width="1.000000" stroke-linejoin="round" stroke-linecap="round"/>
</svg>
