<svg width="82.000000" height="82.000000" viewBox="0 0 82 82" fill="none" xmlns="http://www.w3.org/2000/svg" xmlns:xlink="http://www.w3.org/1999/xlink">
	<desc>
			Created with Pixso.
	</desc>
	<defs/>
	<circle id="Background" cx="41.000000" cy="41.000000" r="41.000000" fill="#FFFFFF" fill-opacity="1.000000"/>
	<path id="25 Nov" d="M40.01 39.04L40.01 36.07L32.69 36.07L35.38 33.02C36.01 32.39 36.58 31.78 37.09 31.22C37.59 30.64 38.02 30.07 38.38 29.52C38.74 28.97 39.01 28.41 39.2 27.85C39.4 27.28 39.49 26.7 39.49 26.1C39.49 25.03 39.27 24.12 38.82 23.37C38.37 22.61 37.72 22.03 36.84 21.62C35.97 21.21 34.9 21.01 33.61 21.01C32.36 21.01 31.26 21.28 30.33 21.82C29.39 22.34 28.66 23.06 28.14 23.95Q27.89 24.37 27.72 24.82Q27.36 25.8 27.36 26.91L31.19 26.91Q31.19 26.06 31.47 25.4C31.66 24.96 31.93 24.61 32.28 24.35C32.63 24.1 33.05 23.98 33.54 23.98C33.99 23.98 34.38 24.07 34.7 24.27C35.01 24.46 35.25 24.75 35.42 25.11Q35.67 25.66 35.67 26.45C35.67 26.78 35.6 27.14 35.45 27.53C35.31 27.91 35.07 28.34 34.75 28.81C34.43 29.28 34 29.83 33.46 30.45L27.73 36.53L27.73 39.04L40.01 39.04ZM42.53 30.31L45.56 31.03C45.76 30.8 46.03 30.58 46.38 30.37C46.73 30.17 47.21 30.07 47.83 30.07Q48.54 30.07 49.04 30.29C49.38 30.43 49.66 30.63 49.88 30.9C50.1 31.16 50.26 31.48 50.37 31.85C50.48 32.22 50.53 32.63 50.53 33.1C50.53 33.54 50.49 33.96 50.41 34.35C50.33 34.74 50.2 35.08 50.02 35.38Q49.89 35.6 49.71 35.77Q49.54 35.95 49.32 36.07C49.03 36.24 48.67 36.32 48.25 36.32C47.81 36.32 47.42 36.23 47.09 36.05C46.75 35.86 46.49 35.6 46.29 35.27C46.1 34.93 45.98 34.52 45.94 34.05L42.13 34.05Q42.14 35.24 42.62 36.21Q42.63 36.23 42.64 36.24C42.98 36.9 43.44 37.45 44.02 37.9Q44.14 37.99 44.26 38.08Q45.05 38.62 46 38.93C46.73 39.17 47.49 39.28 48.27 39.28C49.3 39.28 50.2 39.12 50.97 38.8C51.73 38.47 52.36 38.03 52.86 37.48C53.36 36.92 53.74 36.28 53.98 35.57C54.23 34.86 54.35 34.11 54.35 33.33Q54.35 31.91 53.98 30.8C53.75 30.06 53.39 29.44 52.92 28.93C52.46 28.42 51.89 28.03 51.21 27.76C50.54 27.49 49.76 27.36 48.89 27.36C48.31 27.36 47.78 27.44 47.31 27.6C46.83 27.76 46.49 27.9 46.27 28.03L46.7 24.28L53.75 24.28L53.75 21.27L43.57 21.27L42.53 30.31ZM36.18 62.04L36.18 47.82L33.02 47.82L33.02 57.01L27.64 47.82L24.45 47.82L24.45 62.04L27.64 62.04L27.64 52.85L33.01 62.04L36.18 62.04ZM37.94 56.66L37.94 56.86Q37.94 58.02 38.27 59C38.49 59.65 38.82 60.22 39.25 60.71C39.68 61.19 40.21 61.57 40.84 61.83C41.47 62.1 42.19 62.24 43 62.24C43.81 62.24 44.53 62.1 45.16 61.83C45.78 61.57 46.31 61.19 46.74 60.71C47.17 60.22 47.49 59.65 47.71 59C47.94 58.35 48.05 57.63 48.05 56.86L48.05 56.66Q48.05 55.5 47.71 54.52C47.49 53.86 47.17 53.29 46.74 52.81C46.31 52.33 45.78 51.96 45.15 51.69Q44.21 51.28 42.98 51.28C42.17 51.28 41.45 51.41 40.83 51.69C40.2 51.96 39.68 52.33 39.25 52.81C38.82 53.29 38.49 53.86 38.27 54.52C38.05 55.17 37.94 55.88 37.94 56.66ZM53.58 58.41L51.77 51.47L48.55 51.47L52.06 62.04L55.1 62.04L58.6 51.47L55.4 51.47L53.58 58.41ZM41 56.86L41 56.66C41 56.25 41.03 55.86 41.09 55.51C41.16 55.14 41.28 54.82 41.43 54.54C41.59 54.26 41.8 54.04 42.05 53.89C42.3 53.73 42.61 53.65 42.98 53.65C43.36 53.65 43.67 53.73 43.92 53.89C44.19 54.04 44.39 54.26 44.55 54.54C44.71 54.82 44.82 55.14 44.88 55.51C44.95 55.86 44.99 56.25 44.99 56.66L44.99 56.86C44.99 57.28 44.95 57.67 44.88 58.04C44.82 58.4 44.71 58.72 44.55 58.99Q44.38 59.29 44.14 59.49Q44.04 59.57 43.93 59.64C43.68 59.79 43.37 59.86 43 59.86C42.63 59.86 42.31 59.79 42.05 59.64Q41.94 59.57 41.85 59.49Q41.6 59.29 41.43 58.99C41.28 58.72 41.16 58.4 41.09 58.04C41.03 57.67 41 57.28 41 56.86Z" fill="#274C5B" fill-opacity="1.000000" fill-rule="evenodd"/>
</svg>
