<svg width="56.000000" height="56.000000" viewBox="0 0 56 56" fill="none" xmlns="http://www.w3.org/2000/svg" xmlns:xlink="http://www.w3.org/1999/xlink">
	<desc>
			Created with Pixso.
	</desc>
	<defs/>
	<circle id="Ellipse 59" cx="28.000000" cy="28.000000" r="28.000000" fill="#274C5B" fill-opacity="1.000000"/>
	<path id="Vector" d="M24.77 39C25.45 39 26 38.45 26 37.77C26 37.1 25.45 36.55 24.77 36.55C24.1 36.55 23.55 37.1 23.55 37.77C23.55 38.45 24.1 39 24.77 39Z" fill="#FFFFFF" fill-opacity="1.000000" fill-rule="nonzero"/>
	<path id="Vector" d="M24.77 39C24.1 39 23.55 38.45 23.55 37.77C23.55 37.1 24.1 36.55 24.77 36.55C25.45 36.55 26 37.1 26 37.77C26 38.45 25.45 39 24.77 39Z" stroke="#FFFFFF" stroke-opacity="1.000000" stroke-width="1.500000" stroke-linejoin="round"/>
	<path id="Vector" d="M33.33 39C34 39 34.55 38.45 34.55 37.77C34.55 37.1 34 36.55 33.33 36.55C32.65 36.55 32.11 37.1 32.11 37.77C32.11 38.45 32.65 39 33.33 39Z" fill="#FFFFFF" fill-opacity="1.000000" fill-rule="nonzero"/>
	<path id="Vector" d="M33.33 39C32.65 39 32.11 38.45 32.11 37.77C32.11 37.1 32.65 36.55 33.33 36.55C34 36.55 34.55 37.1 34.55 37.77C34.55 38.45 34 39 33.33 39Z" stroke="#FFFFFF" stroke-opacity="1.000000" stroke-width="1.500000" stroke-linejoin="round"/>
	<path id="Vector" d="M15 17L18.78 17L21.61 33.07L36.74 33.07" stroke="#FFFFFF" stroke-opacity="1.000000" stroke-width="2.000000" stroke-linejoin="round" stroke-linecap="round"/>
	<path id="Vector" d="M21.11 29.18L36.35 29.29C36.46 29.29 36.57 29.25 36.65 29.18C36.74 29.11 36.8 29.01 36.82 28.91L38.52 20.4C38.53 20.33 38.53 20.26 38.51 20.19C38.5 20.12 38.47 20.06 38.42 20C38.38 19.95 38.32 19.91 38.26 19.88C38.19 19.85 38.13 19.83 38.06 19.83L19.56 19.83" stroke="#FFFFFF" stroke-opacity="1.000000" stroke-width="2.000000" stroke-linejoin="round" stroke-linecap="round"/>
</svg>
