<svg width="220.000000" height="79.000000" viewBox="0 0 220 79" fill="none" xmlns="http://www.w3.org/2000/svg" xmlns:xlink="http://www.w3.org/1999/xlink">
	<desc>
			Created with Pixso.
	</desc>
	<defs/>
	<rect id="Button" rx="15.500000" width="219.000000" height="78.000000" transform="translate(0.500000 0.500000)" fill="#EFD372" fill-opacity="1.000000"/>
	<path id="Explore Now" d="M72.91 47L75.74 47L75.74 32L72.91 32L72.91 47ZM43.19 40.83L48.82 40.83L48.82 38.54L43.19 38.54L43.19 35.15L49.78 35.15L49.78 32.78L40.26 32.78L40.26 47L49.8 47L49.8 44.64L43.19 44.64L43.19 40.83ZM121.1 47L124.02 47L124.02 32.78L121.1 32.78L121.1 42.15L115.39 32.78L112.46 32.78L112.46 47L115.39 47L115.39 37.64L121.1 47ZM69.91 45.72Q71.02 44.25 71.02 41.81L71.02 41.66Q71.02 39.12 69.93 37.68Q69.5 37.1 68.92 36.75Q68.06 36.23 66.9 36.23Q66 36.23 65.29 36.59Q64.69 36.9 64.22 37.46L64.12 36.43L61.5 36.43L61.5 51.06L64.33 51.06L64.33 46.08Q64.71 46.51 65.19 46.78Q65.94 47.19 66.91 47.19Q67.91 47.19 68.69 46.78Q69.39 46.41 69.91 45.72ZM78.23 38.81Q77.63 40.04 77.63 41.61L77.63 41.74Q77.63 44 78.72 45.41Q78.85 45.57 78.99 45.73Q79.39 46.16 79.88 46.47Q81.03 47.19 82.64 47.19Q84.24 47.19 85.39 46.47Q85.88 46.16 86.28 45.72Q86.49 45.49 86.67 45.24Q87.64 43.87 87.64 41.82L87.62 41.1Q87.49 39.23 86.53 38.01Q86.34 37.76 86.11 37.54Q85.73 37.18 85.29 36.91Q84.16 36.23 82.62 36.23Q81.21 36.23 80.12 36.82Q80.05 36.86 79.98 36.91Q79.53 37.17 79.17 37.51Q78.6 38.06 78.23 38.81ZM94.3 39Q94.74 39 95.31 39.08L95.35 36.36Q94.94 36.23 94.47 36.23Q93.89 36.23 93.41 36.45Q92.64 36.8 92.12 37.69L92.04 36.43L89.38 36.43L89.38 47L92.2 47L92.2 40.08Q92.33 39.8 92.53 39.59Q93.11 39 94.3 39ZM98.44 46.45Q99.67 47.19 101.35 47.19Q102.67 47.19 103.75 46.69Q104.62 46.28 105.2 45.62Q105.35 45.46 105.47 45.29L104.08 43.73Q103.73 44.19 103.26 44.47Q102.53 44.91 101.53 44.91Q100.76 44.91 100.18 44.58Q99.97 44.45 99.79 44.29Q99.61 44.13 99.47 43.94Q99.07 43.39 98.97 42.63L105.69 42.63L105.69 41.48Q105.69 38.97 104.45 37.6Q104.12 37.24 103.73 36.97Q102.63 36.23 101.04 36.23Q99.86 36.23 98.89 36.69Q98.67 36.79 98.46 36.91Q98.11 37.13 97.8 37.4Q97.14 37.99 96.72 38.85Q96.1 40.1 96.1 41.69L96.1 41.97Q96.1 43.73 96.91 44.97Q97.19 45.4 97.56 45.76Q97.97 46.16 98.44 46.45ZM126.56 38.81Q125.96 40.04 125.96 41.61L125.96 41.74Q125.96 44 127.05 45.41Q127.18 45.57 127.32 45.73Q127.72 46.16 128.21 46.47Q129.36 47.19 130.97 47.19Q132.57 47.19 133.72 46.47Q134.21 46.16 134.61 45.72Q134.82 45.49 135 45.24Q135.97 43.87 135.97 41.82L135.95 41.1Q135.82 39.23 134.86 38.01Q134.67 37.76 134.44 37.54Q134.06 37.18 133.63 36.91Q132.49 36.23 130.95 36.23Q129.54 36.23 128.45 36.82Q128.38 36.86 128.31 36.91Q127.87 37.17 127.5 37.51Q126.93 38.06 126.56 38.81ZM57.13 36.43L55.35 39.58L53.61 36.43L50.59 36.43L53.58 41.6L50.45 47L53.49 47L55.36 43.67L57.25 47L60.27 47L57.14 41.6L60.15 36.43L57.13 36.43ZM148.28 36.43L146.89 43.16L144.97 36.43L142.93 36.43L141 43.15L139.62 36.43L136.89 36.43L139.59 47L141.94 47L143.95 40.34L145.95 47L148.31 47L151.01 36.43L148.28 36.43ZM81.02 44.12Q80.45 43.32 80.45 41.82Q80.45 40.13 81.02 39.32Q81.27 38.97 81.61 38.77Q82.04 38.52 82.62 38.52Q83.2 38.52 83.64 38.77Q83.98 38.97 84.24 39.33Q84.82 40.14 84.82 41.61Q84.82 43.34 84.24 44.13Q83.99 44.47 83.65 44.67Q83.21 44.91 82.64 44.91Q82.01 44.91 81.56 44.64Q81.25 44.44 81.02 44.12ZM100.09 38.74Q100.5 38.52 101.03 38.52Q101.79 38.52 102.26 38.89Q102.34 38.96 102.41 39.03Q102.43 39.05 102.44 39.06Q102.9 39.57 102.92 40.48L102.92 40.71L99 40.71Q99.14 39.65 99.66 39.08Q99.86 38.88 100.09 38.74ZM129.35 44.12Q128.78 43.32 128.78 41.82Q128.78 40.13 129.35 39.32Q129.6 38.97 129.94 38.77Q130.37 38.52 130.95 38.52Q131.53 38.52 131.97 38.77Q132.32 38.97 132.57 39.33Q133.14 40.14 133.14 41.61Q133.14 43.34 132.57 44.13Q132.32 44.47 131.98 44.67Q131.54 44.91 130.97 44.91Q130.35 44.91 129.89 44.64Q129.58 44.44 129.35 44.12ZM67.67 39.33Q68.19 40.13 68.19 41.6Q68.19 44.02 67.12 44.67Q66.72 44.91 66.17 44.91Q65.36 44.91 64.84 44.52Q64.53 44.27 64.33 43.87L64.33 39.54Q64.51 39.18 64.79 38.95Q65.3 38.53 66.15 38.53Q66.7 38.53 67.1 38.77Q67.43 38.96 67.67 39.33Z" fill="#274C5B" fill-opacity="1.000000" fill-rule="evenodd"/>
	<circle id="Ellipse" cx="171.500000" cy="39.500000" r="9.500000" fill="#335B6B" fill-opacity="1.000000"/>
	<path id="Vector" d="M171.47 36.12L174.87 39.19L171.47 42.25M174.39 39.19L167.51 39.19" stroke="#FFFFFF" stroke-opacity="1.000000" stroke-width="1.000000" stroke-linejoin="round" stroke-linecap="round"/>
</svg>
