<svg width="56.000000" height="56.000000" viewBox="0 0 56 56" fill="none" xmlns="http://www.w3.org/2000/svg" xmlns:xlink="http://www.w3.org/1999/xlink">
	<desc>
			Created with Pixso.
	</desc>
	<defs/>
	<circle id="Ellipse 59" cx="28.000000" cy="28.000000" r="28.000000" fill="#7EB693" fill-opacity="1.000000"/>
	<path id="Vector" d="M39.67 35.89L34.91 31.13C36.06 29.6 36.68 27.74 36.68 25.84C36.68 20.96 32.71 17 27.84 17C22.96 17 19 20.96 19 25.84C19 30.71 22.96 34.68 27.84 34.68C29.74 34.68 31.6 34.06 33.13 32.91L37.89 37.67C38.13 37.89 38.44 38 38.77 37.99C39.09 37.99 39.4 37.85 39.62 37.62C39.85 37.4 39.99 37.09 39.99 36.77C40 36.44 39.89 36.13 39.67 35.89ZM21.52 25.84C21.52 24.59 21.89 23.37 22.58 22.33C23.28 21.29 24.27 20.48 25.42 20C26.57 19.52 27.84 19.4 29.07 19.64C30.29 19.89 31.42 20.49 32.3 21.37C33.18 22.25 33.78 23.38 34.03 24.6C34.27 25.83 34.15 27.1 33.67 28.25C33.19 29.41 32.38 30.39 31.34 31.09C30.31 31.78 29.08 32.15 27.84 32.15C26.16 32.15 24.56 31.48 23.37 30.3C22.19 29.11 21.52 27.51 21.52 25.84Z" fill="#FAFAFA" fill-opacity="1.000000" fill-rule="nonzero"/>
</svg>
