<svg width="185.835938" height="18.008789" viewBox="0 0 185.836 18.0088" fill="none" xmlns="http://www.w3.org/2000/svg" xmlns:xlink="http://www.w3.org/1999/xlink">
	<desc>
			Created with Pixso.
	</desc>
	<defs/>
	<path id="Copyright © Organick" d="M65.76 4.08L65.76 0L64.3 0L64.3 13.67L65.76 13.67L65.76 8.63Q65.76 7.49 66.04 6.7Q66.24 6.12 66.64 5.75Q66.79 5.61 66.95 5.5Q67.59 5.09 68.66 5.09Q69.74 5.09 70.29 5.63Q70.32 5.66 70.35 5.69Q70.9 6.29 70.9 7.49L70.9 13.67L72.34 13.67L72.34 7.4Q72.34 6.16 71.95 5.39Q71.74 4.99 71.44 4.7Q71.15 4.43 70.78 4.25Q70 3.88 68.84 3.88Q68.18 3.88 67.59 4.06Q67 4.24 66.54 4.59Q66.38 4.71 66.24 4.85Q65.98 5.11 65.78 5.44L65.68 5.44Q65.73 5.15 65.75 4.79Q65.76 4.43 65.76 4.08ZM163.66 0.25Q163.24 0 162.67 0Q162.07 0 161.64 0.27Q161.59 0.3 161.54 0.34Q161.21 0.64 161.21 1.3Q161.21 1.96 161.54 2.26Q161.59 2.3 161.64 2.34Q161.66 2.35 161.67 2.36Q162.09 2.62 162.67 2.62Q163.22 2.62 163.62 2.39Q163.66 2.36 163.7 2.34Q163.76 2.3 163.81 2.25Q164.13 1.95 164.13 1.3Q164.13 0.65 163.8 0.35Q163.75 0.31 163.7 0.27Q163.68 0.26 163.66 0.25ZM178.76 6.11L178.76 0L176.08 0L176.08 13.67L178.76 13.67L178.76 10.61L179.91 9.69L182.74 13.67L185.83 13.67L181.69 8.11L185.59 3.84L182.57 3.84L179.82 6.83Q179.49 7.18 179.21 7.56Q178.92 7.94 178.65 8.33L178.62 8.33Q178.67 7.77 178.71 7.22Q178.76 6.67 178.76 6.11ZM51.11 0.51Q50.94 0.43 50.73 0.43Q50.48 0.43 50.28 0.54Q50.19 0.59 50.11 0.67Q50.1 0.67 50.1 0.68Q49.86 0.91 49.86 1.39Q49.86 1.86 50.09 2.1Q50.1 2.1 50.11 2.11Q50.19 2.19 50.29 2.25Q50.48 2.35 50.73 2.35Q50.93 2.35 51.1 2.28Q51.24 2.22 51.35 2.11Q51.37 2.1 51.39 2.08Q51.61 1.84 51.61 1.39Q51.61 0.93 51.38 0.69Q51.37 0.68 51.35 0.67Q51.24 0.57 51.11 0.51ZM117.46 9.93Q117.83 8.71 117.83 7.23Q117.83 5.22 117.18 3.74Q116.8 2.88 116.18 2.24Q115.74 1.78 115.17 1.44Q113.82 0.62 111.73 0.62Q109.63 0.62 108.27 1.44Q107.66 1.8 107.19 2.3Q106.61 2.92 106.25 3.73Q105.6 5.22 105.6 7.21Q105.6 8.7 105.97 9.93Q106.33 11.15 107.09 12.03Q107.22 12.19 107.37 12.33Q108.04 12.99 108.99 13.38Q110.14 13.85 111.71 13.85Q113.29 13.85 114.44 13.38Q115.38 12.99 116.06 12.33Q116.21 12.19 116.34 12.03Q117.09 11.15 117.46 9.93ZM4.24 2.32Q5.08 1.95 6.15 1.95Q7 1.95 7.73 2.16Q8.47 2.37 9.08 2.65L9.68 1.38Q8.95 1.02 8.05 0.83Q7.14 0.64 6.16 0.64Q4.68 0.64 3.53 1.12Q2.65 1.48 1.99 2.08Q1.78 2.27 1.6 2.47Q1.58 2.5 1.55 2.53Q0.8 3.39 0.4 4.56Q0 5.77 0 7.23Q0 9.25 0.65 10.74Q1.07 11.69 1.76 12.36Q2.15 12.74 2.62 13.03Q3.93 13.85 5.89 13.85Q6.96 13.85 7.73 13.72Q8.5 13.59 9.21 13.33L9.21 12.03Q8.49 12.25 7.72 12.39Q6.96 12.54 6.1 12.54Q4.59 12.54 3.59 11.89Q3.3 11.7 3.06 11.48Q2.44 10.9 2.07 10.05Q1.57 8.85 1.57 7.24Q1.57 6.02 1.88 5.04Q2.2 4.06 2.79 3.37Q3.05 3.08 3.35 2.84Q3.75 2.53 4.24 2.32ZM89.74 13.35Q90.95 13.85 92.39 13.85Q93.81 13.85 95.02 13.35Q95.9 12.99 96.62 12.42Q96.88 12.21 97.12 11.97Q97.36 11.73 97.58 11.46Q98.15 10.76 98.5 9.88Q99 8.67 99 7.25Q99 5.82 98.49 4.62Q98.14 3.79 97.6 3.11Q97.35 2.8 97.07 2.52Q96.75 2.21 96.39 1.94Q95.74 1.45 94.97 1.13Q94.83 1.08 94.7 1.03Q93.62 0.64 92.39 0.64Q90.96 0.64 89.75 1.13Q88.87 1.49 88.15 2.06Q87.89 2.27 87.65 2.51Q87.41 2.75 87.19 3.02Q86.63 3.73 86.27 4.6Q85.78 5.81 85.78 7.25Q85.78 8.67 86.26 9.88Q86.61 10.74 87.17 11.44Q87.39 11.72 87.64 11.97Q87.88 12.21 88.15 12.42Q88.86 12.99 89.74 13.35ZM94.27 12.64Q93.38 12.95 92.39 12.95Q91.15 12.95 90.11 12.51Q89.42 12.21 88.85 11.75Q88.57 11.53 88.32 11.28Q88.03 10.97 87.78 10.63Q87.4 10.09 87.15 9.46Q87.1 9.34 87.06 9.23Q86.73 8.3 86.73 7.25Q86.73 6.01 87.15 4.97Q87.46 4.2 87.95 3.58Q88.13 3.36 88.33 3.15Q88.56 2.92 88.82 2.71Q89.41 2.26 90.12 1.96Q91.16 1.54 92.39 1.54Q93.62 1.54 94.65 1.99Q95.34 2.28 95.91 2.73Q96.19 2.96 96.44 3.22Q96.74 3.54 96.99 3.89Q97.36 4.42 97.61 5.04Q97.65 5.15 97.69 5.26Q98.03 6.19 98.03 7.25Q98.03 8.49 97.59 9.53Q97.26 10.29 96.76 10.91Q96.58 11.14 96.38 11.34Q96.07 11.64 95.72 11.9Q95.19 12.27 94.58 12.53Q94.43 12.59 94.27 12.64ZM79.19 12.59Q78.82 12.65 78.46 12.65Q77.97 12.65 77.63 12.44Q77.47 12.34 77.34 12.2Q76.93 11.75 76.93 10.85L76.93 5.18L79.75 5.18L79.75 4.04L76.93 4.04L76.93 1.81L76.05 1.81L75.47 3.9L74.09 4.47L74.09 5.18L75.46 5.18L75.46 10.89Q75.46 12.03 75.83 12.67Q76.1 13.13 76.5 13.4Q76.66 13.5 76.83 13.58Q77.45 13.85 78.22 13.85Q78.65 13.85 79.1 13.77Q79.55 13.69 79.81 13.57L79.81 12.44Q79.57 12.53 79.19 12.59ZM108.79 9.54Q108.45 8.57 108.45 7.23Q108.45 5.87 108.79 4.9Q109.08 4.06 109.67 3.55Q109.76 3.48 109.85 3.41Q110.58 2.89 111.73 2.89Q113 2.89 113.75 3.51Q114.02 3.74 114.22 4.05Q114.97 5.21 114.97 7.23Q114.97 8.57 114.64 9.54Q114.36 10.39 113.78 10.89Q113.69 10.97 113.59 11.04Q112.87 11.56 111.71 11.56Q110.57 11.56 109.85 11.04Q109.76 10.98 109.68 10.91Q109.09 10.4 108.79 9.54ZM90.41 10.58Q91.26 11.26 92.67 11.26Q93.29 11.26 93.75 11.14Q94.02 11.07 94.29 10.97Q94.46 10.9 94.64 10.82L94.64 9.75Q94.18 9.94 93.67 10.05Q93.17 10.16 92.73 10.16Q91.78 10.16 91.23 9.7Q91.09 9.57 90.97 9.41Q90.41 8.65 90.41 7.25Q90.41 5.89 91.02 5.11Q91.24 4.84 91.51 4.67Q92.03 4.34 92.75 4.34Q93.17 4.34 93.6 4.46Q94.03 4.57 94.47 4.8L94.96 3.78Q94.46 3.53 93.89 3.39Q93.46 3.28 93.03 3.26Q92.89 3.25 92.74 3.25Q91.58 3.25 90.76 3.76Q90.45 3.96 90.19 4.22Q89.79 4.62 89.52 5.18Q89.1 6.08 89.1 7.25Q89.1 9.07 89.99 10.17L90 10.17Q90.18 10.4 90.41 10.58ZM145.68 4.5Q144.63 3.64 142.65 3.64Q141.61 3.64 140.64 3.88Q139.67 4.12 138.89 4.53L139.78 6.34Q140.46 6.03 141.15 5.83Q141.52 5.72 141.91 5.67Q142.22 5.63 142.55 5.63Q143.26 5.63 143.66 5.98L143.67 5.99Q143.69 6 143.7 6.02Q144.07 6.38 144.07 7.12L144.07 7.55L142.37 7.61Q140.17 7.69 139.07 8.43Q138.73 8.66 138.49 8.98Q137.97 9.67 137.97 10.74Q137.97 11.8 138.37 12.49Q138.61 12.91 138.96 13.19Q139.18 13.38 139.46 13.51Q140.14 13.85 141.02 13.85Q141.83 13.85 142.4 13.69Q142.97 13.53 143.4 13.21Q143.41 13.2 143.42 13.2Q143.85 12.86 144.28 12.33L144.35 12.33L144.87 13.67L146.74 13.67L146.74 7.12Q146.74 5.68 146.02 4.84Q145.87 4.66 145.68 4.5ZM126.24 3.68Q125.97 3.66 125.77 3.66Q125.22 3.66 124.74 3.84Q124.65 3.87 124.56 3.91Q124.21 4.07 123.91 4.29Q123.73 4.42 123.57 4.58Q123.13 5 122.84 5.5L122.71 5.5L122.31 3.84L120.28 3.84L120.28 13.67L122.96 13.67L122.96 8.67Q122.96 7.98 123.19 7.5Q123.38 7.09 123.69 6.81Q123.74 6.76 123.8 6.72Q123.89 6.65 123.99 6.59Q124.3 6.4 124.67 6.3Q124.74 6.28 124.8 6.26Q125.23 6.16 125.68 6.16Q125.85 6.16 126.1 6.19Q126.34 6.21 126.47 6.25L126.67 3.74Q126.51 3.7 126.24 3.68ZM128.19 17.28Q129.27 18 131.33 18Q134.02 18 135.46 17.05Q136.17 16.57 136.53 15.9Q136.89 15.24 136.89 14.37Q136.89 13.34 136.4 12.7Q136.24 12.5 136.05 12.33Q135.2 11.64 133.58 11.64L131.91 11.64Q131.42 11.64 131.09 11.57Q130.76 11.51 130.6 11.38Q130.5 11.31 130.46 11.21Q130.43 11.14 130.43 11.06Q130.43 11 130.44 10.95Q130.47 10.81 130.54 10.69Q130.64 10.52 130.85 10.36Q131.26 10.4 131.73 10.43Q133.69 10.43 134.79 9.54Q135.18 9.23 135.43 8.84Q135.89 8.1 135.89 7.08Q135.89 6.67 135.79 6.3Q135.75 6.15 135.69 6.02Q135.6 5.8 135.47 5.6L137.01 5.21L137.01 3.84L133.58 3.84Q133.47 3.82 133.17 3.77Q132.87 3.73 132.51 3.7Q132.15 3.66 131.88 3.66Q130.58 3.66 129.68 4.06Q128.97 4.37 128.53 4.91Q128.41 5.05 128.31 5.2Q127.84 5.95 127.84 7.03Q127.84 7.99 128.26 8.71Q128.28 8.74 128.29 8.77Q128.55 9.19 128.92 9.48Q129.19 9.7 129.52 9.84Q128.9 10.2 128.58 10.57Q128.5 10.67 128.44 10.77Q128.25 11.09 128.25 11.51Q128.25 11.61 128.27 11.71Q128.32 12.05 128.56 12.36Q128.85 12.73 129.23 12.91Q129.25 12.92 129.28 12.93Q128.21 13.19 127.66 13.79Q127.47 13.99 127.34 14.23Q127.1 14.69 127.1 15.27Q127.1 15.91 127.37 16.4Q127.64 16.92 128.19 17.28ZM157.35 4.31Q156.45 3.66 155.08 3.66Q154.46 3.66 153.89 3.81Q153.36 3.95 152.92 4.22Q152.88 4.25 152.84 4.28Q152.75 4.33 152.67 4.4Q152.31 4.68 152.06 5.1L151.91 5.1L151.55 3.84L149.5 3.84L149.5 13.67L152.18 13.67L152.18 9.05Q152.18 7.47 152.63 6.64Q152.75 6.42 152.92 6.26Q153.4 5.8 154.31 5.8Q154.91 5.8 155.28 6.1Q155.41 6.2 155.5 6.34Q155.89 6.88 155.89 7.93L155.89 13.67L158.57 13.67L158.57 7.26Q158.57 5.41 157.64 4.55Q157.63 4.53 157.61 4.52Q157.48 4.41 157.35 4.31ZM168.32 13.31Q169.35 13.85 170.81 13.85Q171.84 13.85 172.51 13.68Q172.53 13.67 172.55 13.66Q173.2 13.49 173.8 13.12L173.8 10.82Q173.18 11.23 172.53 11.45Q171.88 11.68 171.05 11.68Q170.4 11.68 169.94 11.38Q169.93 11.37 169.91 11.36Q169.45 11.05 169.2 10.41Q168.96 9.77 168.96 8.79Q168.96 7.8 169.18 7.14Q169.41 6.49 169.87 6.16Q169.87 6.16 169.88 6.15Q170.35 5.82 171.05 5.82Q171.59 5.82 172.14 5.98Q172.68 6.15 173.32 6.4L174.11 4.33Q173.55 4.06 172.81 3.86Q172.07 3.66 171.05 3.66Q169.62 3.66 168.53 4.2Q168.17 4.37 167.87 4.61Q167.24 5.1 166.83 5.87Q166.22 7.01 166.22 8.81Q166.22 10.55 166.76 11.67Q167.12 12.41 167.69 12.89Q167.98 13.14 168.32 13.31ZM54.29 17.29Q55.32 18 57.22 18Q59.68 18 60.98 17.14Q61.59 16.74 61.92 16.18Q62.28 15.54 62.28 14.69Q62.28 13.78 61.85 13.19Q61.68 12.95 61.44 12.77Q60.6 12.11 59.03 12.11L57.33 12.11Q56.88 12.11 56.55 12.03Q56.23 11.96 56.06 11.79Q56.01 11.75 55.98 11.7Q55.88 11.55 55.88 11.34Q55.88 11.13 55.96 10.94Q56.01 10.8 56.11 10.67Q56.33 10.38 56.76 10.15Q57.19 10.22 57.59 10.22Q59.28 10.22 60.26 9.38Q60.26 9.37 60.27 9.37Q60.61 9.08 60.83 8.71Q61.25 8.02 61.25 7.08Q61.25 6.49 61.07 6.01Q60.89 5.52 60.63 5.18L62.41 4.96L62.41 4.02L59.1 4.02Q58.93 3.97 58.69 3.93Q58.45 3.89 58.19 3.87Q57.93 3.84 57.68 3.84Q56.52 3.84 55.7 4.23Q55.15 4.49 54.77 4.91Q54.59 5.11 54.45 5.35Q54.02 6.09 54.02 7.12Q54.02 7.95 54.36 8.6Q54.42 8.72 54.49 8.83Q54.81 9.33 55.26 9.63Q55.47 9.77 55.72 9.87Q55.11 10.24 54.82 10.64Q54.71 10.78 54.65 10.94Q54.52 11.23 54.52 11.57Q54.52 11.84 54.61 12.07Q54.68 12.23 54.79 12.38Q54.99 12.64 55.26 12.81Q55.34 12.86 55.44 12.91Q54.47 13.11 53.91 13.69Q53.87 13.72 53.84 13.76Q53.61 14.02 53.47 14.32Q53.27 14.77 53.27 15.31Q53.27 15.97 53.55 16.49Q53.8 16.95 54.29 17.29ZM164.01 13.67L164.01 3.84L161.33 3.84L161.33 13.67L164.01 13.67ZM19.77 10.96Q20.08 10.02 20.08 8.84Q20.08 7.26 19.53 6.15Q19.13 5.34 18.49 4.81Q18.26 4.61 17.99 4.45Q17.95 4.42 17.9 4.4Q16.94 3.86 15.68 3.86Q14.3 3.86 13.31 4.45Q13 4.63 12.73 4.86Q12.14 5.38 11.77 6.14Q11.24 7.25 11.24 8.84Q11.24 10.02 11.56 10.96Q11.88 11.89 12.46 12.53Q12.74 12.83 13.06 13.07Q13.43 13.33 13.85 13.51Q14.66 13.85 15.62 13.85Q16.66 13.85 17.48 13.51Q18.01 13.29 18.43 12.95Q18.67 12.76 18.88 12.53Q19.46 11.89 19.77 10.96ZM29.12 4.36Q28.27 3.86 27.13 3.86Q26.33 3.86 25.74 4.08Q25.16 4.29 24.75 4.66Q24.35 5.02 24.07 5.46L24 5.46L23.8 4.04L22.6 4.04L22.6 17.98L24.07 17.98L24.07 14.02Q24.07 13.66 24.03 13.18Q23.99 12.7 23.96 12.35L24.07 12.35Q24.34 12.76 24.75 13.1Q25.17 13.44 25.75 13.64Q26.33 13.85 27.09 13.85Q28.19 13.85 29.03 13.38Q29.11 13.33 29.2 13.28Q29.29 13.22 29.37 13.16Q30.14 12.59 30.58 11.59Q31.07 10.47 31.07 8.83Q31.07 6.34 30 5.1Q29.61 4.65 29.12 4.36ZM47.61 3.89Q47.3 3.86 47.01 3.86Q46.32 3.86 45.76 4.13Q45.45 4.27 45.18 4.48Q44.97 4.64 44.78 4.83Q44.59 5.04 44.42 5.26Q44.22 5.53 44.06 5.81L44 5.81L43.84 4.04L42.63 4.04L42.63 13.67L44.1 13.67L44.1 8.5Q44.1 7.76 44.32 7.14Q44.54 6.53 44.92 6.1Q45.19 5.8 45.51 5.6Q45.66 5.51 45.83 5.43Q46 5.35 46.19 5.3Q46.54 5.2 46.92 5.2Q47.17 5.2 47.46 5.23Q47.75 5.27 47.99 5.33L48.18 3.98Q47.93 3.92 47.61 3.89ZM33.66 4.04L32.09 4.04L35.95 13.69L35.42 15.04Q35.21 15.59 34.92 15.98Q34.66 16.34 34.31 16.54Q34.27 16.56 34.23 16.58Q33.83 16.79 33.29 16.79Q32.99 16.79 32.71 16.76Q32.44 16.72 32.24 16.68L32.24 17.85Q32.47 17.91 32.79 17.96Q33.1 18 33.52 18Q34.41 18 35.05 17.65Q35.1 17.62 35.16 17.58Q35.72 17.23 36.12 16.63Q36.57 15.97 36.9 15.09L41.09 4.04L39.52 4.04L37.51 9.62Q37.24 10.37 37.01 11.08Q36.79 11.8 36.66 12.24L36.6 12.24Q36.53 11.85 36.41 11.44Q36.29 11.03 36.13 10.57Q35.97 10.12 35.78 9.63L33.66 4.04ZM51.45 13.67L51.45 4.04L49.99 4.04L49.99 13.67L51.45 13.67ZM59.21 8.63Q58.68 9.15 57.64 9.15Q56.68 9.15 56.14 8.68Q56.11 8.65 56.09 8.63Q56.03 8.57 55.97 8.5Q55.54 7.99 55.54 7.11Q55.54 6.05 56.07 5.49Q56.08 5.49 56.08 5.48Q56.15 5.42 56.22 5.36Q56.74 4.93 57.62 4.93Q58.64 4.93 59.17 5.43Q59.19 5.45 59.21 5.47Q59.74 6.01 59.74 7.09Q59.74 8.05 59.26 8.58Q59.24 8.6 59.22 8.63Q59.21 8.63 59.21 8.63ZM13.06 10.85Q12.75 10 12.75 8.84Q12.75 7.08 13.45 6.09Q13.63 5.83 13.86 5.64Q14.54 5.09 15.65 5.09Q16.67 5.09 17.31 5.55Q17.41 5.62 17.5 5.7Q18 6.14 18.26 6.85Q18.57 7.69 18.57 8.84Q18.57 10 18.26 10.85Q18 11.58 17.49 12.02Q17.4 12.1 17.31 12.17Q16.66 12.63 15.66 12.63Q14.65 12.63 14 12.17Q13.92 12.11 13.84 12.04Q13.32 11.59 13.06 10.85ZM25.26 5.48Q25.87 5.09 26.87 5.09Q27.75 5.09 28.34 5.51Q28.67 5.74 28.91 6.1Q29.57 7.11 29.57 8.81Q29.57 9.94 29.28 10.8Q28.98 11.67 28.38 12.15Q28.28 12.23 28.17 12.3Q27.63 12.63 26.89 12.63Q25.84 12.63 25.22 12.19Q25.14 12.13 25.06 12.06Q24.57 11.64 24.34 10.91Q24.07 10.07 24.07 8.85L24.07 8.56Q24.09 7.4 24.37 6.64Q24.59 6.03 25.02 5.66Q25.13 5.56 25.26 5.48ZM132.83 8.49Q132.48 8.79 131.88 8.79Q131.29 8.79 130.94 8.5Q130.84 8.43 130.76 8.33Q130.4 7.86 130.4 7.06Q130.4 6.17 130.77 5.73Q130.84 5.65 130.91 5.58Q131.27 5.29 131.88 5.29Q132.46 5.29 132.81 5.57Q132.9 5.64 132.97 5.73Q133.33 6.17 133.33 7.06Q133.33 7.86 132.98 8.33Q132.91 8.42 132.83 8.49ZM143.04 9.15L144.07 9.12L144.07 9.93Q144.07 10.64 143.74 11.1Q143.63 11.25 143.48 11.38Q143.3 11.53 143.1 11.64Q142.63 11.89 142.03 11.89Q141.45 11.89 141.09 11.63Q141.03 11.59 140.99 11.54Q140.73 11.28 140.73 10.75Q140.73 10.34 140.9 10.03Q141.02 9.8 141.23 9.62Q141.74 9.19 143.04 9.15ZM59.25 16.61Q58.46 16.85 57.26 16.85Q56.04 16.85 55.38 16.44Q55.06 16.24 54.9 15.95Q54.72 15.65 54.72 15.25Q54.72 14.66 54.98 14.27Q55.04 14.19 55.1 14.11Q55.34 13.83 55.73 13.67Q56.21 13.47 56.86 13.47L58.53 13.47Q59.27 13.47 59.78 13.57Q60.29 13.67 60.55 13.97Q60.82 14.26 60.82 14.84Q60.82 15.21 60.68 15.51Q60.59 15.73 60.42 15.92Q60.03 16.37 59.25 16.61ZM133.09 16.07Q132.4 16.25 131.44 16.25Q130.49 16.25 129.95 15.93Q129.63 15.74 129.5 15.45Q129.42 15.27 129.42 15.06Q129.42 14.84 129.5 14.66Q129.55 14.52 129.65 14.4Q129.88 14.11 130.27 13.95Q130.66 13.79 131.15 13.79L132.54 13.79Q133.22 13.79 133.66 13.88Q134.09 13.97 134.31 14.18Q134.35 14.23 134.38 14.27Q134.52 14.47 134.52 14.77Q134.52 14.94 134.47 15.1Q134.38 15.35 134.15 15.56Q133.78 15.89 133.09 16.07Z" fill="#525C60" fill-opacity="1.000000" fill-rule="evenodd"/>
</svg>
