<svg width="220.000000" height="79.000000" viewBox="0 0 220 79" fill="none" xmlns="http://www.w3.org/2000/svg" xmlns:xlink="http://www.w3.org/1999/xlink">
	<desc>
			Created with Pixso.
	</desc>
	<defs/>
	<rect id="Button" rx="15.500000" width="219.000000" height="78.000000" transform="translate(0.500000 0.500000)" fill="#274C5B" fill-opacity="1.000000"/>
	<path id="Load More" d="M80.61 37.7Q79.5 39.16 79.5 41.63Q79.5 44.25 80.63 45.72Q81.18 46.44 81.92 46.81Q82.67 47.19 83.62 47.19Q84.41 47.19 85.07 46.89Q85.79 46.56 86.34 45.87L86.47 47L89.02 47L89.02 32L86.19 32L86.19 37.39Q85.7 36.82 85.08 36.54Q84.43 36.23 83.64 36.23Q82.57 36.23 81.75 36.69Q81.1 37.05 80.61 37.7ZM56.41 44.64L50.19 44.64L50.19 32.78L47.26 32.78L47.26 47L56.41 47L56.41 44.64ZM103.86 43.09L100.2 32.78L96.38 32.78L96.38 47L99.31 47L99.31 43.11L99.01 36.41L102.84 47L104.85 47L108.69 36.4L108.4 43.11L108.4 47L111.34 47L111.34 32.78L107.49 32.78L103.86 43.09ZM58.08 38.81Q57.47 40.04 57.47 41.61L57.47 41.74Q57.47 44 58.56 45.41Q58.69 45.57 58.83 45.73Q59.24 46.16 59.72 46.47Q60.87 47.19 62.48 47.19Q64.08 47.19 65.23 46.47Q65.72 46.16 66.12 45.72Q66.33 45.49 66.51 45.24Q67.48 43.87 67.48 41.82L67.46 41.1Q67.33 39.23 66.37 38.01Q66.18 37.76 65.95 37.54Q65.57 37.18 65.14 36.91Q64 36.23 62.46 36.23Q61.05 36.23 59.96 36.82Q59.89 36.86 59.82 36.91Q59.38 37.17 59.01 37.51Q58.45 38.06 58.08 38.81ZM75.06 46.05Q75.15 46.61 75.34 47L78.19 47L78.19 46.83Q77.78 46.06 77.77 44.55L77.77 39.97Q77.77 38.68 77.17 37.81Q76.94 37.48 76.62 37.21Q76.6 37.19 76.57 37.17Q75.43 36.23 73.52 36.23Q72.24 36.23 71.2 36.68Q70.16 37.12 69.6 37.9Q69.24 38.4 69.11 38.94Q69.03 39.26 69.03 39.6L71.85 39.6Q71.85 39.21 72.03 38.93Q72.12 38.78 72.26 38.66Q72.66 38.32 73.38 38.32Q74.13 38.32 74.5 38.7Q74.54 38.73 74.56 38.76Q74.59 38.79 74.6 38.81Q74.94 39.24 74.94 39.93L74.94 40.54L73.64 40.54Q71.29 40.55 70.04 41.45Q69.55 41.8 69.26 42.27Q68.8 43.01 68.8 44.03Q68.8 44.72 69.06 45.29Q69.32 45.85 69.82 46.29Q70.07 46.51 70.34 46.67Q71.21 47.19 72.39 47.19Q73.37 47.19 74.14 46.78Q74.65 46.51 75.06 46.05ZM113.88 38.81Q113.27 40.04 113.27 41.61L113.27 41.74Q113.27 44 114.36 45.41Q114.49 45.57 114.63 45.73Q115.04 46.16 115.52 46.47Q116.67 47.19 118.28 47.19Q119.88 47.19 121.03 46.47Q121.52 46.16 121.92 45.72Q122.13 45.49 122.31 45.24Q123.28 43.87 123.28 41.82L123.26 41.1Q123.13 39.23 122.18 38.01Q121.98 37.76 121.75 37.54Q121.38 37.18 120.94 36.91Q119.8 36.23 118.26 36.23Q116.85 36.23 115.77 36.82Q115.69 36.86 115.62 36.91Q115.18 37.17 114.82 37.51Q114.25 38.06 113.88 38.81ZM129.94 39Q130.38 39 130.96 39.08L131 36.36Q130.59 36.23 130.12 36.23Q129.53 36.23 129.05 36.45Q128.28 36.8 127.76 37.69L127.68 36.43L125.02 36.43L125.02 47L127.84 47L127.84 40.08Q127.97 39.8 128.18 39.59Q128.76 39 129.94 39ZM134.08 46.45Q135.31 47.19 136.99 47.19Q138.31 47.19 139.39 46.69Q140.27 46.28 140.85 45.62Q140.99 45.46 141.11 45.29L139.73 43.73Q139.37 44.19 138.9 44.47Q138.17 44.91 137.18 44.91Q136.4 44.91 135.82 44.58Q135.62 44.45 135.43 44.29Q135.25 44.13 135.11 43.94Q134.71 43.39 134.61 42.63L141.34 42.63L141.34 41.48Q141.34 38.97 140.09 37.6Q139.76 37.24 139.37 36.97Q138.27 36.23 136.68 36.23Q135.5 36.23 134.53 36.69Q134.31 36.79 134.11 36.91Q133.75 37.13 133.45 37.4Q132.78 37.99 132.36 38.85Q131.75 40.1 131.75 41.69L131.75 41.97Q131.75 43.73 132.55 44.97Q132.83 45.4 133.21 45.76Q133.61 46.16 134.08 46.45ZM60.86 44.12Q60.29 43.32 60.29 41.82Q60.29 40.13 60.86 39.32Q61.11 38.97 61.45 38.77Q61.88 38.52 62.46 38.52Q63.04 38.52 63.48 38.77Q63.83 38.97 64.08 39.33Q64.66 40.14 64.66 41.61Q64.66 43.34 64.08 44.13Q63.83 44.47 63.49 44.67Q63.06 44.91 62.48 44.91Q61.86 44.91 61.4 44.64Q61.09 44.44 60.86 44.12ZM116.66 44.12Q116.09 43.32 116.09 41.82Q116.09 40.13 116.66 39.32Q116.91 38.97 117.25 38.77Q117.68 38.52 118.26 38.52Q118.84 38.52 119.28 38.77Q119.63 38.97 119.88 39.33Q120.46 40.14 120.46 41.61Q120.46 43.34 119.88 44.13Q119.63 44.47 119.29 44.67Q118.86 44.91 118.28 44.91Q117.66 44.91 117.21 44.64Q116.89 44.44 116.66 44.12ZM135.73 38.74Q136.14 38.52 136.67 38.52Q137.44 38.52 137.91 38.89Q137.99 38.96 138.06 39.03Q138.07 39.05 138.08 39.06Q138.54 39.57 138.56 40.48L138.56 40.71L134.64 40.71Q134.78 39.65 135.31 39.08Q135.5 38.88 135.73 38.74ZM82.84 44.11Q82.32 43.32 82.32 41.84Q82.32 39.44 83.39 38.78Q83.8 38.53 84.36 38.53Q85.08 38.53 85.56 38.87Q85.95 39.14 86.19 39.63L86.19 43.8Q85.95 44.29 85.56 44.56Q85.07 44.91 84.34 44.91Q83.81 44.91 83.41 44.67Q83.08 44.47 82.84 44.11ZM73.84 44.9Q73.45 45.03 73.01 45.03Q72.41 45.03 72.05 44.74Q72.02 44.72 71.99 44.69Q71.83 44.54 71.74 44.36Q71.62 44.12 71.62 43.82L71.63 43.66Q71.67 43.2 71.9 42.89Q72.42 42.19 73.89 42.19L74.94 42.19L74.94 44.01Q74.89 44.09 74.84 44.17Q74.59 44.53 74.16 44.75Q74 44.84 73.84 44.9Z" fill="#FFFFFF" fill-opacity="1.000000" fill-rule="evenodd"/>
	<circle id="Ellipse" cx="161.500000" cy="39.500000" r="9.500000" fill="#335B6B" fill-opacity="1.000000"/>
	<path id="Vector" d="M161.47 36.12L164.87 39.19L161.47 42.25M164.39 39.19L157.51 39.19" stroke="#FFFFFF" stroke-opacity="1.000000" stroke-width="1.000000" stroke-linejoin="round" stroke-linecap="round"/>
</svg>
