<svg width="363.000000" height="80.000000" viewBox="0 0 363 80" fill="none" xmlns="http://www.w3.org/2000/svg" xmlns:xlink="http://www.w3.org/1999/xlink">
	<desc>
			Created with Pixso.
	</desc>
	<defs/>
	<rect id="Pricing" rx="15.500000" width="362.000000" height="79.000000" transform="translate(0.500000 0.500000)" fill="#274C5B" fill-opacity="1.000000"/>
	<path id="Product Description" d="M103.88 49.8Q104.81 50.24 105.93 50.24Q106.92 50.24 107.66 49.97Q108.39 49.7 108.92 49.24Q109.45 48.79 109.8 48.23L109.96 48.23L110.68 50L113.54 50L113.54 31L109.8 31L109.8 35.37Q109.8 36.18 109.91 36.94Q110.01 37.7 110.08 38.09L109.96 38.09Q109.58 37.53 109.04 37.08Q108.5 36.63 107.75 36.36Q107.01 36.09 106.03 36.09Q104.82 36.09 103.84 36.57Q102.94 37.02 102.24 37.89Q100.78 39.69 100.78 43.2Q100.78 46.66 102.22 48.45Q102.94 49.36 103.88 49.8ZM237.21 31.35Q236.63 31 235.84 31Q235 31 234.41 31.39Q234.34 31.43 234.27 31.49Q233.81 31.9 233.81 32.82Q233.81 33.73 234.27 34.14Q234.33 34.2 234.41 34.25Q234.43 34.27 234.46 34.29Q235.03 34.65 235.84 34.65Q236.6 34.65 237.16 34.32Q237.22 34.29 237.27 34.25Q237.35 34.2 237.42 34.14Q237.87 33.72 237.87 32.82Q237.87 31.9 237.41 31.49Q237.35 31.43 237.27 31.39Q237.24 31.37 237.21 31.35ZM271.52 31.35Q270.94 31 270.14 31Q269.3 31 268.71 31.39Q268.64 31.43 268.57 31.49Q268.12 31.9 268.12 32.82Q268.12 33.73 268.57 34.14Q268.63 34.2 268.71 34.25Q268.73 34.27 268.76 34.29Q269.34 34.65 270.14 34.65Q270.9 34.65 271.46 34.32Q271.52 34.29 271.57 34.25Q271.65 34.2 271.72 34.14Q272.17 33.72 272.17 32.82Q272.17 31.9 271.71 31.49Q271.65 31.43 271.57 31.39Q271.54 31.37 271.52 31.35ZM70.12 33.63Q68.53 32.15 65.08 32.15L59.38 32.15L59.38 50L63.16 50L63.16 43.65L64.78 43.65Q66.74 43.65 68.07 43.17Q69.4 42.68 70.2 41.85Q70.69 41.34 71.02 40.73Q71.22 40.36 71.35 39.95Q71.39 39.84 71.42 39.73Q71.71 38.76 71.71 37.71Q71.71 35.71 70.76 34.37Q70.48 33.97 70.12 33.63ZM178.01 45.94Q179.16 43.92 179.16 40.9Q179.16 38.03 178.03 36.09Q177.51 35.2 176.81 34.52Q175.96 33.69 174.83 33.14Q172.77 32.15 169.96 32.15L164.36 32.15L164.36 50L169.41 50Q172.49 50 174.67 48.98Q175.98 48.37 176.91 47.4Q177.55 46.75 178.01 45.94ZM153.66 47.15Q153.08 47.27 152.47 47.27Q151.8 47.27 151.37 46.95Q151.33 46.92 151.29 46.89Q151.23 46.84 151.18 46.78Q150.84 46.4 150.84 45.72L150.84 39.14L154.66 39.14L154.66 36.35L150.84 36.35L150.84 33.44L148.46 33.44L147.39 36.32L145.34 37.57L145.34 39.14L147.12 39.14L147.12 45.72Q147.12 47.48 147.67 48.46Q148.05 49.12 148.61 49.52Q148.88 49.71 149.2 49.84Q150.17 50.24 151.39 50.24Q152.44 50.24 153.33 50.06Q154.21 49.89 154.81 49.62L154.81 46.85Q154.24 47.03 153.66 47.15ZM264.36 47.15Q263.78 47.27 263.17 47.27Q262.5 47.27 262.07 46.95Q262.03 46.92 261.99 46.89Q261.94 46.84 261.89 46.78Q261.55 46.4 261.55 45.72L261.55 39.14L265.37 39.14L265.37 36.35L261.55 36.35L261.55 33.44L259.17 33.44L258.09 36.32L256.04 37.57L256.04 39.14L257.83 39.14L257.83 45.72Q257.83 47.48 258.38 48.46Q258.75 49.12 259.31 49.52Q259.59 49.71 259.91 49.84Q260.88 50.24 262.1 50.24Q263.15 50.24 264.03 50.06Q264.92 49.89 265.52 49.62L265.52 46.85Q264.94 47.03 264.36 47.15ZM63.16 35.25L64.88 35.25Q66.42 35.25 67.15 35.89Q67.23 35.96 67.29 36.03Q67.88 36.67 67.88 37.85Q67.88 38.79 67.46 39.39Q67.38 39.49 67.3 39.58Q66.9 40.03 66.25 40.27Q65.47 40.55 64.41 40.55L63.16 40.55L63.16 35.25ZM174.65 37.75Q175.23 39.02 175.23 41Q175.23 43.92 173.88 45.39Q173.8 45.49 173.71 45.57Q172.36 46.87 169.76 46.87L168.14 46.87L168.14 35.25L170.16 35.25Q171.82 35.25 172.94 35.86Q173.27 36.03 173.55 36.27Q174.24 36.84 174.65 37.75ZM83.05 36.12Q82.68 36.09 82.4 36.09Q81.64 36.09 80.97 36.34Q80.84 36.38 80.72 36.44Q80.24 36.66 79.82 36.96Q79.57 37.15 79.34 37.37Q78.74 37.95 78.33 38.64L78.15 38.64L77.6 36.35L74.78 36.35L74.78 50L78.5 50L78.5 43.05Q78.5 42.08 78.82 41.42Q79.08 40.85 79.52 40.47Q79.59 40.4 79.66 40.35Q79.79 40.25 79.93 40.16Q80.36 39.89 80.88 39.75Q80.97 39.73 81.05 39.71Q81.65 39.57 82.28 39.57Q82.52 39.57 82.86 39.6Q83.19 39.63 83.37 39.69L83.66 36.2Q83.42 36.15 83.05 36.12ZM98.08 46.17Q98.54 44.86 98.54 43.15Q98.54 40.88 97.69 39.3Q97.12 38.25 96.27 37.53Q95.85 37.18 95.36 36.91Q95.31 36.88 95.27 36.86Q93.81 36.09 91.96 36.09Q89.89 36.09 88.4 36.91Q87.83 37.22 87.36 37.65Q86.61 38.33 86.11 39.3Q85.3 40.88 85.3 43.15Q85.3 44.86 85.79 46.17Q86.27 47.49 87.15 48.4Q87.52 48.78 87.94 49.08Q88.54 49.5 89.24 49.78Q90.44 50.24 91.88 50.24Q93.42 50.24 94.65 49.78Q95.51 49.45 96.2 48.9Q96.49 48.67 96.75 48.4Q97.62 47.49 98.08 46.17ZM135.95 49.5Q137.38 50.24 139.41 50.24Q140.83 50.24 141.77 50Q141.8 49.99 141.82 49.99Q142.73 49.75 143.56 49.23L143.56 46.04Q142.7 46.6 141.8 46.91Q140.89 47.22 139.74 47.22Q138.83 47.22 138.19 46.81Q138.17 46.8 138.16 46.79Q137.51 46.36 137.17 45.47Q136.83 44.58 136.83 43.22Q136.83 41.84 137.15 40.93Q137.46 40.02 138.1 39.56Q138.1 39.56 138.11 39.55Q138.76 39.09 139.74 39.09Q140.49 39.09 141.25 39.32Q142 39.55 142.88 39.9L143.98 37.02Q143.21 36.64 142.18 36.37Q141.15 36.09 139.74 36.09Q137.75 36.09 136.24 36.84Q135.74 37.08 135.32 37.41Q134.45 38.1 133.88 39.16Q133.03 40.74 133.03 43.24Q133.03 45.66 133.78 47.21Q134.27 48.24 135.07 48.92Q135.47 49.25 135.95 49.5ZM191.46 36.82Q190.09 36.09 188.2 36.09Q186.27 36.09 184.82 36.89Q184.4 37.12 184.04 37.41Q183.13 38.14 182.55 39.28Q181.74 40.88 181.74 43.27Q181.74 45.62 182.64 47.18Q183.14 48.05 183.86 48.67Q184.42 49.15 185.11 49.48Q186.7 50.24 188.75 50.24Q190.32 50.24 191.43 50.01Q191.96 49.9 192.47 49.72Q193.02 49.53 193.54 49.27L193.54 46.39Q192.4 46.93 191.31 47.2Q190.22 47.47 188.92 47.47Q187.58 47.47 186.74 46.82Q186.59 46.71 186.46 46.57Q186.36 46.48 186.28 46.37Q185.57 45.51 185.51 44.1L194.31 44.1L194.31 42.29Q194.31 40.3 193.57 38.92Q193.17 38.18 192.59 37.63Q192.09 37.15 191.46 36.82ZM206.23 48.26Q206.86 47.31 206.86 45.94Q206.86 44.73 206.4 43.97Q206.39 43.95 206.38 43.93Q205.91 43.2 205.08 42.69Q204.22 42.17 203.07 41.69Q201.87 41.21 201.25 40.89Q200.64 40.58 200.42 40.33Q200.31 40.19 200.26 40.04Q200.21 39.9 200.21 39.74Q200.21 39.53 200.3 39.37Q200.4 39.19 200.62 39.07Q201.04 38.85 201.86 38.85Q202.19 38.85 202.51 38.89Q203.1 38.95 203.68 39.13Q204.58 39.41 205.59 39.85L206.72 37.17Q205.49 36.6 204.34 36.35Q203.19 36.09 201.92 36.09Q199.45 36.09 197.98 37.05Q197.37 37.45 197.01 38.01Q196.51 38.8 196.51 39.9Q196.51 41.06 196.91 41.81Q197.3 42.56 198.13 43.11Q198.95 43.66 200.23 44.2Q201.56 44.76 202.19 45.11Q202.81 45.45 203 45.73Q203.08 45.85 203.13 45.98Q203.19 46.15 203.19 46.35Q203.19 46.56 203.11 46.74Q203 47 202.72 47.19Q202.25 47.52 201.16 47.52Q200.2 47.52 198.92 47.19Q197.65 46.87 196.53 46.37L196.53 49.45Q197.57 49.87 198.59 50.06Q199.61 50.24 201.04 50.24Q202.97 50.24 204.26 49.74Q205.5 49.27 206.15 48.37Q206.18 48.33 206.21 48.29Q206.22 48.27 206.23 48.26ZM211.85 49.5Q213.28 50.24 215.31 50.24Q216.74 50.24 217.67 50Q217.7 49.99 217.73 49.99Q218.63 49.75 219.46 49.23L219.46 46.04Q218.6 46.6 217.7 46.91Q216.8 47.22 215.64 47.22Q214.73 47.22 214.09 46.81Q214.08 46.8 214.06 46.79Q213.42 46.36 213.08 45.47Q212.73 44.58 212.73 43.22Q212.73 41.84 213.05 40.93Q213.36 40.02 214 39.56Q214.01 39.56 214.02 39.55Q214.66 39.09 215.64 39.09Q216.4 39.09 217.15 39.32Q217.91 39.55 218.79 39.9L219.89 37.02Q219.12 36.64 218.09 36.37Q217.05 36.09 215.64 36.09Q213.65 36.09 212.14 36.84Q211.65 37.08 211.22 37.41Q210.36 38.1 209.79 39.16Q208.94 40.74 208.94 43.24Q208.94 45.66 209.68 47.21Q210.18 48.24 210.98 48.92Q211.38 49.25 211.85 49.5ZM230.89 36.12Q230.52 36.09 230.24 36.09Q229.48 36.09 228.81 36.34Q228.68 36.38 228.56 36.44Q228.08 36.66 227.66 36.96Q227.41 37.15 227.18 37.37Q226.58 37.95 226.17 38.64L225.99 38.64L225.44 36.35L222.62 36.35L222.62 50L226.34 50L226.34 43.05Q226.34 42.08 226.66 41.42Q226.92 40.85 227.36 40.47Q227.43 40.4 227.5 40.35Q227.63 40.25 227.77 40.16Q228.2 39.89 228.72 39.75Q228.81 39.73 228.89 39.71Q229.49 39.57 230.12 39.57Q230.36 39.57 230.7 39.6Q231.03 39.63 231.21 39.69L231.5 36.2Q231.26 36.15 230.89 36.12ZM251.32 36.56Q250.37 36.09 249.2 36.09Q248.22 36.09 247.48 36.37Q246.74 36.64 246.22 37.1Q245.69 37.57 245.33 38.12L245.16 38.12L244.63 36.35L241.6 36.35L241.6 56L245.33 56L245.33 50.5Q245.33 50.01 245.28 49.49Q245.23 48.98 245.13 48.49L245.33 48.49Q245.69 48.95 246.19 49.34Q246.69 49.74 247.4 49.99Q248.11 50.24 249.1 50.24Q250.18 50.24 251.09 49.84Q251.47 49.67 251.82 49.43Q253 48.63 253.68 47.05Q254.35 45.47 254.35 43.15Q254.35 39.68 252.92 37.89Q252.23 37.01 251.32 36.56ZM287.85 46.17Q288.31 44.86 288.31 43.15Q288.31 40.88 287.46 39.3Q286.89 38.25 286.04 37.53Q285.62 37.18 285.13 36.91Q285.08 36.88 285.04 36.86Q283.59 36.09 281.73 36.09Q279.66 36.09 278.18 36.91Q277.6 37.22 277.13 37.65Q276.38 38.33 275.88 39.3Q275.07 40.88 275.07 43.15Q275.07 44.86 275.56 46.17Q276.04 47.49 276.92 48.4Q277.29 48.78 277.71 49.08Q278.31 49.5 279.01 49.78Q280.21 50.24 281.65 50.24Q283.19 50.24 284.42 49.78Q285.28 49.45 285.97 48.9Q286.26 48.67 286.52 48.4Q287.39 47.49 287.85 46.17ZM302.29 36.99Q301.04 36.09 299.13 36.09Q298.28 36.09 297.48 36.3Q296.75 36.49 296.14 36.87Q296.08 36.91 296.03 36.95Q295.91 37.03 295.8 37.12Q295.29 37.51 294.94 38.09L294.73 38.09L294.23 36.35L291.38 36.35L291.38 50L295.11 50L295.11 43.57Q295.11 41.39 295.73 40.23Q295.89 39.92 296.13 39.7Q296.8 39.07 298.06 39.07Q298.91 39.07 299.42 39.48Q299.59 39.63 299.73 39.81Q300.26 40.56 300.26 42.02L300.26 50L303.98 50L303.98 41.1Q303.98 38.52 302.69 37.32Q302.67 37.3 302.65 37.28Q302.48 37.13 302.29 36.99ZM129.96 50L129.96 36.35L126.23 36.35L126.23 42.77Q126.23 44.22 125.97 45.23Q125.71 46.24 125.06 46.75Q124.42 47.27 123.28 47.27Q122.41 47.27 121.9 46.84Q121.73 46.71 121.61 46.53Q121.08 45.78 121.08 44.32L121.08 36.35L117.36 36.35L117.36 45.25Q117.36 47 117.96 48.1Q118.33 48.77 118.88 49.22Q119.23 49.52 119.65 49.72Q120.74 50.24 122.21 50.24Q123.06 50.24 123.85 50.03Q124.5 49.86 125.06 49.54Q125.18 49.47 125.31 49.38Q125.49 49.26 125.66 49.12Q126.09 48.75 126.41 48.25L126.6 48.25L127.1 50L129.96 50ZM237.7 50L237.7 36.35L233.97 36.35L233.97 50L237.7 50ZM272 50L272 36.35L268.28 36.35L268.28 50L272 50ZM186.97 39.03Q187.52 38.74 188.22 38.74Q189.1 38.74 189.67 39.12Q189.89 39.26 190.06 39.45Q190.35 39.74 190.52 40.14Q190.81 40.79 190.82 41.62L185.6 41.62Q185.71 40.13 186.42 39.44Q186.67 39.19 186.97 39.03ZM246.45 39.47Q247.02 39.07 248 39.07Q248.78 39.07 249.32 39.43Q249.68 39.68 249.93 40.08Q250.55 41.1 250.55 43.1Q250.55 44.43 250.28 45.35Q250 46.27 249.45 46.75Q249.35 46.84 249.24 46.91Q248.75 47.22 248.05 47.22Q247.01 47.22 246.42 46.75Q245.83 46.27 245.58 45.36Q245.33 44.44 245.33 43.12L245.33 42.72Q245.35 41.49 245.61 40.68Q245.86 39.93 246.38 39.52Q246.41 39.5 246.45 39.47ZM89.39 45.41Q89.1 44.49 89.1 43.15Q89.1 41.12 89.77 40.11Q89.96 39.81 90.22 39.61Q90.86 39.09 91.91 39.09Q92.91 39.09 93.53 39.55Q93.55 39.56 93.56 39.57Q94.16 40.02 94.44 40.89Q94.73 41.79 94.73 43.15Q94.73 44.49 94.44 45.41Q94.15 46.32 93.54 46.78Q92.92 47.25 91.93 47.25Q90.93 47.25 90.31 46.78Q89.69 46.32 89.39 45.41ZM279.16 45.41Q278.87 44.49 278.87 43.15Q278.87 41.12 279.54 40.11Q279.73 39.81 279.99 39.61Q280.63 39.09 281.68 39.09Q282.68 39.09 283.3 39.55Q283.32 39.56 283.33 39.57Q283.93 40.02 284.21 40.89Q284.5 41.79 284.5 43.15Q284.5 44.49 284.21 45.41Q283.92 46.32 283.31 46.78Q282.69 47.25 281.7 47.25Q280.7 47.25 280.08 46.78Q279.46 46.32 279.16 45.41ZM109.17 46.63Q108.52 47.27 107.24 47.27Q106.54 47.27 106.01 46.97Q105.58 46.72 105.26 46.26Q104.55 45.25 104.55 43.24Q104.55 41.24 105.25 40.18Q105.62 39.62 106.14 39.35Q106.6 39.12 107.18 39.12Q108.48 39.12 109.14 39.77Q109.32 39.95 109.45 40.17Q110.06 41.23 110.06 43.22L110.06 43.62Q110.02 45.45 109.39 46.36Q109.29 46.51 109.17 46.63Z" fill="#FFFFFF" fill-opacity="1.000000" fill-rule="evenodd"/>
</svg>
