<svg width="309.000000" height="80.000000" viewBox="0 0 309 80" fill="none" xmlns="http://www.w3.org/2000/svg" xmlns:xlink="http://www.w3.org/1999/xlink">
	<desc>
			Created with Pixso.
	</desc>
	<defs/>
	<rect id="Pricing" rx="15.500000" width="308.000000" height="79.000000" transform="translate(0.500000 0.500000)" fill="#EFF6F1" fill-opacity="1.000000"/>
	<path id="Additional Info" d="M228.11 39.14L231.33 39.14L231.33 36.35L228.11 36.35L228.11 35.49Q228.11 34.78 228.45 34.32Q228.46 34.31 228.47 34.29Q228.53 34.21 228.61 34.14Q228.97 33.82 229.61 33.82Q230.26 33.82 230.76 33.93Q231.26 34.04 231.69 34.17L232.64 31.44Q232.08 31.22 231.19 31.04Q230.3 30.87 229.21 30.87Q227.73 30.87 226.65 31.26Q226.08 31.47 225.65 31.84Q225.26 32.17 224.98 32.63Q224.39 33.6 224.39 35.35L224.39 36.35L222.34 37.35L222.34 39.14L224.39 39.14L224.39 50L228.11 50L228.11 39.14ZM82.47 49.8Q83.39 50.24 84.52 50.24Q85.51 50.24 86.24 49.97Q86.97 49.7 87.5 49.24Q88.03 48.79 88.39 48.23L88.55 48.23L89.27 50L92.12 50L92.12 31L88.39 31L88.39 35.37Q88.39 36.18 88.49 36.94Q88.6 37.7 88.67 38.09L88.55 38.09Q88.17 37.53 87.63 37.08Q87.08 36.63 86.34 36.36Q85.59 36.09 84.62 36.09Q83.4 36.09 82.43 36.57Q81.52 37.02 80.82 37.89Q79.37 39.69 79.37 43.2Q79.37 46.66 80.8 48.45Q81.53 49.36 82.47 49.8ZM98.29 49.8Q99.21 50.24 100.34 50.24Q101.33 50.24 102.06 49.97Q102.79 49.7 103.32 49.24Q103.86 48.79 104.21 48.23L104.37 48.23L105.09 50L107.94 50L107.94 31L104.21 31L104.21 35.37Q104.21 36.18 104.31 36.94Q104.42 37.7 104.49 38.09L104.37 38.09Q103.99 37.53 103.45 37.08Q102.9 36.63 102.16 36.36Q101.41 36.09 100.44 36.09Q99.22 36.09 98.25 36.57Q97.34 37.02 96.64 37.89Q95.19 39.69 95.19 43.2Q95.19 46.66 96.62 48.45Q97.35 49.36 98.29 49.8ZM115.08 31.35Q114.5 31 113.71 31Q112.86 31 112.27 31.39Q112.2 31.43 112.14 31.49Q111.68 31.9 111.68 32.82Q111.68 33.73 112.13 34.14Q112.2 34.2 112.27 34.25Q112.3 34.27 112.32 34.29Q112.9 34.65 113.71 34.65Q114.46 34.65 115.03 34.32Q115.08 34.29 115.13 34.25Q115.21 34.2 115.28 34.14Q115.73 33.72 115.73 32.82Q115.73 31.9 115.28 31.49Q115.21 31.43 115.13 31.39Q115.11 31.37 115.08 31.35ZM133.56 31.35Q132.98 31 132.19 31Q131.35 31 130.75 31.39Q130.68 31.43 130.62 31.49Q130.16 31.9 130.16 32.82Q130.16 33.73 130.61 34.14Q130.68 34.2 130.75 34.25Q130.78 34.27 130.8 34.29Q131.38 34.65 132.19 34.65Q132.94 34.65 133.51 34.32Q133.56 34.29 133.62 34.25Q133.7 34.2 133.77 34.14Q134.21 33.72 134.21 32.82Q134.21 31.9 133.76 31.49Q133.69 31.43 133.62 31.39Q133.59 31.37 133.56 31.35ZM184.96 50L188.68 50L188.68 31L184.96 31L184.96 50ZM72.87 45.75L74.17 50L78.24 50L71.92 32.08L67.29 32.08L61 50L65.07 50L66.37 45.75L72.87 45.75ZM199.38 32.15L199.38 50L203.16 50L203.16 32.15L199.38 32.15ZM126.41 47.15Q125.83 47.27 125.22 47.27Q124.55 47.27 124.12 46.95Q124.08 46.92 124.04 46.89Q123.98 46.84 123.93 46.78Q123.59 46.4 123.59 45.72L123.59 39.14L127.41 39.14L127.41 36.35L123.59 36.35L123.59 33.44L121.21 33.44L120.14 36.32L118.09 37.57L118.09 39.14L119.87 39.14L119.87 45.72Q119.87 47.48 120.43 48.46Q120.8 49.12 121.36 49.52Q121.63 49.71 121.95 49.84Q122.92 50.24 124.14 50.24Q125.19 50.24 126.08 50.06Q126.96 49.89 127.56 49.62L127.56 46.85Q126.99 47.03 126.41 47.15ZM70.68 38.42L71.97 42.57L67.32 42.57L68.6 38.42Q68.69 38.14 68.88 37.48Q69.08 36.82 69.29 36.09Q69.5 35.35 69.63 34.85Q69.75 35.35 69.95 36.02Q70.15 36.7 70.35 37.35Q70.55 38.01 70.68 38.42ZM179.66 37.26Q178.2 36.07 175.45 36.07Q174.01 36.07 172.66 36.4Q171.31 36.73 170.22 37.3L171.46 39.81Q172.41 39.39 173.36 39.11Q173.88 38.95 174.42 38.88Q174.86 38.83 175.3 38.83Q176.3 38.83 176.86 39.32Q176.86 39.32 176.87 39.33Q176.89 39.35 176.91 39.37Q177.43 39.87 177.43 40.9L177.43 41.5L175.06 41.57Q172.01 41.68 170.48 42.71Q170 43.04 169.67 43.48Q168.96 44.43 168.96 45.92Q168.96 47.39 169.5 48.35Q169.84 48.93 170.32 49.33Q170.63 49.59 171.01 49.78Q171.97 50.24 173.18 50.24Q174.31 50.24 175.11 50.02Q175.89 49.8 176.49 49.35Q176.5 49.34 176.51 49.34Q177.12 48.87 177.71 48.14L177.81 48.14L178.53 50L181.13 50L181.13 40.9Q181.13 38.89 180.13 37.73Q179.92 37.48 179.66 37.26ZM149.89 46.17Q150.35 44.86 150.35 43.15Q150.35 40.88 149.5 39.3Q148.94 38.25 148.08 37.53Q147.66 37.18 147.17 36.91Q147.13 36.88 147.08 36.86Q145.63 36.09 143.77 36.09Q141.71 36.09 140.22 36.91Q139.65 37.22 139.18 37.65Q138.42 38.33 137.92 39.3Q137.12 40.88 137.12 43.15Q137.12 44.86 137.6 46.17Q138.08 47.49 138.97 48.4Q139.34 48.78 139.76 49.08Q140.35 49.5 141.06 49.78Q142.26 50.24 143.7 50.24Q145.24 50.24 146.46 49.78Q147.33 49.45 148.01 48.9Q148.3 48.67 148.56 48.4Q149.44 47.49 149.89 46.17ZM164.33 36.99Q163.08 36.09 161.18 36.09Q160.32 36.09 159.53 36.3Q158.79 36.49 158.18 36.87Q158.13 36.91 158.07 36.95Q157.95 37.03 157.84 37.12Q157.34 37.51 156.98 38.09L156.77 38.09L156.27 36.35L153.43 36.35L153.43 50L157.15 50L157.15 43.57Q157.15 41.39 157.77 40.23Q157.94 39.92 158.18 39.7Q158.85 39.07 160.11 39.07Q160.95 39.07 161.46 39.48Q161.64 39.63 161.77 39.81Q162.3 40.56 162.3 42.02L162.3 50L166.03 50L166.03 41.1Q166.03 38.52 164.74 37.32Q164.72 37.3 164.69 37.28Q164.52 37.13 164.33 36.99ZM218.26 36.99Q217.01 36.09 215.11 36.09Q214.26 36.09 213.46 36.3Q212.72 36.49 212.11 36.87Q212.06 36.91 212 36.95Q211.88 37.03 211.77 37.12Q211.27 37.51 210.91 38.09L210.7 38.09L210.2 36.35L207.36 36.35L207.36 50L211.08 50L211.08 43.57Q211.08 41.39 211.7 40.23Q211.87 39.92 212.11 39.7Q212.78 39.07 214.04 39.07Q214.88 39.07 215.39 39.48Q215.57 39.63 215.7 39.81Q216.23 40.56 216.23 42.02L216.23 50L219.96 50L219.96 41.1Q219.96 38.52 218.67 37.32Q218.65 37.3 218.63 37.28Q218.45 37.13 218.26 36.99ZM245.41 46.17Q245.87 44.86 245.87 43.15Q245.87 40.88 245.02 39.3Q244.46 38.25 243.6 37.53Q243.18 37.18 242.69 36.91Q242.65 36.88 242.6 36.86Q241.15 36.09 239.29 36.09Q237.23 36.09 235.74 36.91Q235.17 37.22 234.7 37.65Q233.94 38.33 233.44 39.3Q232.64 40.88 232.64 43.15Q232.64 44.86 233.12 46.17Q233.6 47.49 234.49 48.4Q234.86 48.78 235.28 49.08Q235.87 49.5 236.58 49.78Q237.78 50.24 239.22 50.24Q240.76 50.24 241.98 49.78Q242.85 49.45 243.53 48.9Q243.82 48.67 244.08 48.4Q244.96 47.49 245.41 46.17ZM115.56 50L115.56 36.35L111.84 36.35L111.84 50L115.56 50ZM134.04 50L134.04 36.35L130.32 36.35L130.32 50L134.04 50ZM141.21 45.41Q140.92 44.49 140.92 43.15Q140.92 41.12 141.58 40.11Q141.77 39.81 142.03 39.61Q142.67 39.09 143.72 39.09Q144.72 39.09 145.35 39.55Q145.36 39.56 145.38 39.57Q145.98 40.02 146.26 40.89Q146.54 41.79 146.54 43.15Q146.54 44.49 146.26 45.41Q145.97 46.32 145.35 46.78Q144.74 47.25 143.75 47.25Q142.75 47.25 142.12 46.78Q141.5 46.32 141.21 45.41ZM236.73 45.41Q236.44 44.49 236.44 43.15Q236.44 41.12 237.1 40.11Q237.29 39.81 237.55 39.61Q238.19 39.09 239.24 39.09Q240.24 39.09 240.87 39.55Q240.88 39.56 240.9 39.57Q241.5 40.02 241.78 40.89Q242.06 41.79 242.06 43.15Q242.06 44.49 241.78 45.41Q241.49 46.32 240.87 46.78Q240.26 47.25 239.27 47.25Q238.27 47.25 237.64 46.78Q237.02 46.32 236.73 45.41ZM87.75 46.63Q87.1 47.27 85.82 47.27Q85.13 47.27 84.6 46.97Q84.16 46.72 83.84 46.26Q83.14 45.25 83.14 43.24Q83.14 41.24 83.84 40.18Q84.21 39.62 84.73 39.35Q85.19 39.12 85.76 39.12Q87.07 39.12 87.73 39.77Q87.9 39.95 88.03 40.17Q88.64 41.23 88.64 43.22L88.64 43.62Q88.61 45.45 87.98 46.36Q87.88 46.51 87.75 46.63ZM103.57 46.63Q102.93 47.27 101.65 47.27Q100.95 47.27 100.42 46.97Q99.98 46.72 99.66 46.26Q98.96 45.25 98.96 43.24Q98.96 41.24 99.66 40.18Q100.03 39.62 100.55 39.35Q101.01 39.12 101.58 39.12Q102.89 39.12 103.55 39.77Q103.72 39.95 103.86 40.17Q104.47 41.23 104.47 43.22L104.47 43.62Q104.43 45.45 103.8 46.36Q103.7 46.51 103.57 46.63ZM175.99 43.72L177.43 43.67L177.43 44.79Q177.43 45.78 176.96 46.42Q176.81 46.63 176.6 46.81Q176.35 47.02 176.07 47.17Q175.42 47.52 174.58 47.52Q173.78 47.52 173.28 47.16Q173.2 47.1 173.14 47.04Q172.78 46.67 172.78 45.94Q172.78 45.37 173.01 44.94Q173.18 44.62 173.48 44.37Q174.18 43.77 175.99 43.72Z" fill="#274C5B" fill-opacity="1.000000" fill-rule="evenodd"/>
</svg>
