<svg width="213.000000" height="80.000000" viewBox="0 0 213 80" fill="none" xmlns="http://www.w3.org/2000/svg" xmlns:xlink="http://www.w3.org/1999/xlink">
	<desc>
			Created with Pixso.
	</desc>
	<defs/>
	<rect id="2" rx="15.500000" width="212.000000" height="79.000000" transform="translate(0.500000 0.500000)" fill="#274C5B" fill-opacity="1.000000"/>
	<path id="Add To Cart" d="M54.21 37.7Q53.1 39.16 53.1 41.63Q53.1 44.25 54.22 45.72Q54.78 46.44 55.51 46.81Q56.27 47.19 57.22 47.19Q58.01 47.19 58.67 46.89Q59.38 46.56 59.93 45.87L60.07 47L62.62 47L62.62 32L59.79 32L59.79 37.39Q59.3 36.82 58.68 36.54Q58.03 36.23 57.24 36.23Q56.16 36.23 55.34 36.69Q54.69 37.05 54.21 37.7ZM65.47 37.7Q64.37 39.16 64.37 41.63Q64.37 44.25 65.49 45.72Q66.05 46.44 66.78 46.81Q67.54 47.19 68.49 47.19Q69.28 47.19 69.93 46.89Q70.65 46.56 71.2 45.87L71.34 47L73.89 47L73.89 32L71.06 32L71.06 37.39Q70.57 36.82 69.95 36.54Q69.3 36.23 68.51 36.23Q67.43 36.23 66.61 36.69Q65.96 37.05 65.47 37.7ZM117.51 45.05Q118.33 43.9 118.45 42.26L115.52 42.26Q115.42 43.56 114.75 44.18Q114.08 44.8 112.73 44.8Q111.7 44.8 111.05 44.31Q110.75 44.07 110.52 43.73Q109.83 42.67 109.83 40.36L109.83 39.29Q109.85 37.08 110.57 36.03Q110.82 35.67 111.16 35.44Q111.8 34.98 112.77 34.98Q114.11 34.98 114.77 35.6Q115.43 36.22 115.54 37.6L118.47 37.6Q118.28 35.66 117.24 34.42Q117.01 34.14 116.73 33.9Q116.56 33.75 116.38 33.62Q114.95 32.58 112.77 32.58Q111.22 32.58 110 33.22Q109.82 33.31 109.64 33.42Q109.31 33.62 109.02 33.87Q108.12 34.64 107.58 35.81Q106.86 37.38 106.86 39.43L106.86 40.3Q106.86 43.51 108.42 45.35Q108.94 45.95 109.58 46.36Q110.89 47.19 112.73 47.19Q114.99 47.19 116.46 46.11Q116.61 46 116.75 45.87Q117.19 45.5 117.51 45.05ZM43.16 44.07L48.29 44.07L49.28 47L52.39 47L47.07 32.78L44.36 32.78L39.06 47L42.18 47L43.16 44.07ZM87 35.15L91.36 35.15L91.36 32.78L79.78 32.78L79.78 35.15L84.07 35.15L84.07 47L87 47L87 35.15ZM142.07 36.43L142.07 33.83L139.25 33.83L139.25 36.43L137.71 36.43L137.71 38.5L139.25 38.5L139.25 44.19Q139.28 45.71 140.05 46.46Q140.81 47.19 142.28 47.19Q142.84 47.19 143.39 47.09Q143.69 47.03 143.99 46.94L143.99 44.8Q143.62 44.87 143.16 44.87Q142.52 44.87 142.3 44.61Q142.07 44.36 142.07 43.77L142.07 38.5L143.88 38.5L143.88 36.43L142.07 36.43ZM90.98 38.81Q90.37 40.04 90.37 41.61L90.37 41.74Q90.37 44 91.46 45.41Q91.59 45.57 91.73 45.73Q92.14 46.16 92.62 46.47Q93.77 47.19 95.38 47.19Q96.99 47.19 98.13 46.47Q98.62 46.16 99.02 45.72Q99.23 45.49 99.41 45.24Q100.38 43.87 100.38 41.82L100.36 41.1Q100.23 39.23 99.28 38.01Q99.08 37.76 98.85 37.54Q98.48 37.18 98.04 36.91Q96.91 36.23 95.36 36.23Q93.95 36.23 92.87 36.82Q92.79 36.86 92.72 36.91Q92.28 37.17 91.92 37.51Q91.35 38.06 90.98 38.81ZM126.03 46.05Q126.11 46.61 126.31 47L129.16 47L129.16 46.83Q128.75 46.06 128.74 44.55L128.74 39.97Q128.74 38.68 128.14 37.81Q127.91 37.48 127.59 37.21Q127.57 37.19 127.54 37.17Q126.4 36.23 124.49 36.23Q123.2 36.23 122.17 36.68Q121.13 37.12 120.57 37.9Q120.21 38.4 120.08 38.94Q120 39.26 120 39.6L122.82 39.6Q122.82 39.21 123 38.93Q123.09 38.78 123.23 38.66Q123.63 38.32 124.35 38.32Q125.09 38.32 125.47 38.7Q125.5 38.73 125.53 38.76Q125.55 38.79 125.57 38.81Q125.91 39.24 125.91 39.93L125.91 40.54L124.61 40.54Q122.26 40.55 121.01 41.45Q120.52 41.8 120.23 42.27Q119.77 43.01 119.77 44.03Q119.77 44.72 120.03 45.29Q120.29 45.85 120.79 46.29Q121.03 46.51 121.31 46.67Q122.18 47.19 123.36 47.19Q124.34 47.19 125.11 46.78Q125.62 46.51 126.03 46.05ZM135.83 39Q136.27 39 136.85 39.08L136.89 36.36Q136.48 36.23 136.01 36.23Q135.42 36.23 134.94 36.45Q134.17 36.8 133.65 37.69L133.58 36.43L130.91 36.43L130.91 47L133.73 47L133.73 40.08Q133.86 39.8 134.07 39.59Q134.65 39 135.83 39ZM47.5 41.69L43.95 41.69L45.71 36.37L47.5 41.69ZM93.76 44.12Q93.19 43.32 93.19 41.82Q93.19 40.13 93.76 39.32Q94.01 38.97 94.35 38.77Q94.78 38.52 95.36 38.52Q95.95 38.52 96.38 38.77Q96.73 38.97 96.98 39.33Q97.56 40.14 97.56 41.61Q97.56 43.34 96.98 44.13Q96.73 44.47 96.39 44.67Q95.96 44.91 95.38 44.91Q94.76 44.91 94.31 44.64Q93.99 44.44 93.76 44.12ZM56.44 44.11Q55.92 43.32 55.92 41.84Q55.92 39.44 56.99 38.78Q57.4 38.53 57.96 38.53Q58.68 38.53 59.16 38.87Q59.55 39.14 59.79 39.63L59.79 43.8Q59.55 44.29 59.16 44.56Q58.67 44.91 57.94 44.91Q57.4 44.91 57 44.67Q56.67 44.47 56.44 44.11ZM67.71 44.11Q67.19 43.32 67.19 41.84Q67.19 39.44 68.26 38.78Q68.67 38.53 69.23 38.53Q69.95 38.53 70.43 38.87Q70.82 39.14 71.06 39.63L71.06 43.8Q70.82 44.29 70.43 44.56Q69.94 44.91 69.21 44.91Q68.67 44.91 68.27 44.67Q67.94 44.47 67.71 44.11ZM124.8 44.9Q124.41 45.03 123.98 45.03Q123.38 45.03 123.02 44.74Q122.99 44.72 122.96 44.69Q122.8 44.54 122.71 44.36Q122.59 44.12 122.59 43.82L122.6 43.66Q122.64 43.2 122.87 42.89Q123.39 42.19 124.85 42.19L125.91 42.19L125.91 44.01Q125.86 44.09 125.81 44.17Q125.56 44.53 125.13 44.75Q124.97 44.84 124.8 44.9Z" fill="#FFFFFF" fill-opacity="1.000000" fill-rule="evenodd"/>
	<circle id="Ellipse" cx="164.500000" cy="39.500000" r="9.500000" fill="#335B6B" fill-opacity="1.000000"/>
	<path id="Vector" d="M164.47 36.12L167.87 39.19L164.47 42.25M167.39 39.19L160.51 39.19" stroke="#FFFFFF" stroke-opacity="1.000000" stroke-width="1.000000" stroke-linejoin="round" stroke-linecap="round"/>
</svg>
