<svg width="122.275391" height="26.748535" viewBox="0 0 122.275 26.7485" fill="none" xmlns="http://www.w3.org/2000/svg" xmlns:xlink="http://www.w3.org/1999/xlink">
	<desc>
			Created with Pixso.
	</desc>
	<defs/>
	<path d="M13.06 2.78L11.09 8.56C10.95 8.96 10.57 9.24 10.14 9.24L3.88 9.24C2.9 9.24 2.5 10.5 3.31 11.06L8.3 14.52C8.66 14.77 8.82 15.24 8.67 15.66L6.75 21.31C6.44 22.23 7.47 23.01 8.27 22.46L13.44 18.87C13.78 18.64 14.23 18.64 14.58 18.87L19.75 22.46C20.54 23.01 21.57 22.23 21.26 21.31L19.34 15.66C19.19 15.24 19.35 14.77 19.72 14.52L24.7 11.06C25.51 10.5 25.11 9.24 24.13 9.24L17.87 9.24C17.44 9.24 17.06 8.96 16.92 8.56L14.95 2.78C14.64 1.87 13.37 1.87 13.06 2.78Z" fill="#FFA858" fill-opacity="1.000000" fill-rule="evenodd"/>
	<path d="M36.62 2.92L34.79 8.55C34.66 8.96 34.27 9.24 33.84 9.24L27.93 9.24C26.96 9.24 26.56 10.48 27.34 11.05L32.12 14.52C32.47 14.78 32.62 15.23 32.49 15.64L30.66 21.26C30.36 22.18 31.41 22.95 32.2 22.38L36.98 18.9C37.33 18.65 37.81 18.65 38.16 18.9L42.94 22.38C43.72 22.95 44.78 22.18 44.48 21.26L42.65 15.64C42.52 15.23 42.66 14.78 43.02 14.52L47.8 11.05C48.58 10.48 48.18 9.24 47.21 9.24L41.3 9.24C40.87 9.24 40.48 8.96 40.35 8.55L38.52 2.92C38.22 2 36.92 2 36.62 2.92Z" fill="#FFA858" fill-opacity="1.000000" fill-rule="evenodd"/>
	<path d="M60.19 2.78L58.22 8.56C58.08 8.96 57.7 9.24 57.27 9.24L51 9.24C50.02 9.24 49.63 10.5 50.43 11.06L55.42 14.52C55.79 14.77 55.94 15.24 55.8 15.66L53.88 21.31C53.56 22.23 54.6 23.01 55.39 22.46L60.56 18.87C60.91 18.64 61.36 18.64 61.7 18.87L66.87 22.46C67.67 23.01 68.7 22.23 68.39 21.31L66.47 15.66C66.32 15.24 66.48 14.77 66.84 14.52L71.83 11.06C72.64 10.5 72.24 9.24 71.26 9.24L64.99 9.24C64.57 9.24 64.19 8.96 64.05 8.56L62.08 2.78C61.77 1.87 60.49 1.87 60.19 2.78Z" fill="#FFA858" fill-opacity="1.000000" fill-rule="evenodd"/>
	<path d="M83.75 2.92L81.92 8.55C81.78 8.96 81.4 9.24 80.97 9.24L75.05 9.24C74.09 9.24 73.68 10.48 74.47 11.05L79.25 14.52C79.6 14.78 79.75 15.23 79.61 15.64L77.79 21.26C77.49 22.18 78.54 22.95 79.33 22.38L84.11 18.9C84.46 18.65 84.93 18.65 85.28 18.9L90.07 22.38C90.85 22.95 91.91 22.18 91.61 21.26L89.78 15.64C89.64 15.23 89.79 14.78 90.14 14.52L94.93 11.05C95.71 10.48 95.31 9.24 94.34 9.24L88.43 9.24C87.99 9.24 87.61 8.96 87.47 8.55L85.65 2.92C85.35 2 84.04 2 83.75 2.92Z" fill="#FFA858" fill-opacity="1.000000" fill-rule="evenodd"/>
	<path d="M107.31 2.78L105.35 8.56C105.21 8.96 104.83 9.24 104.4 9.24L98.13 9.24C97.15 9.24 96.76 10.5 97.56 11.06L102.55 14.52C102.92 14.77 103.07 15.24 102.93 15.66L101 21.31C100.69 22.23 101.73 23.01 102.52 22.46L107.69 18.87C108.03 18.64 108.49 18.64 108.83 18.87L114 22.46C114.79 23.01 115.83 22.23 115.52 21.31L113.59 15.66C113.45 15.24 113.6 14.77 113.97 14.52L118.96 11.06C119.76 10.5 119.37 9.24 118.39 9.24L112.12 9.24C111.69 9.24 111.31 8.96 111.18 8.56L109.21 2.78C108.9 1.87 107.62 1.87 107.31 2.78Z" fill="#FFA858" fill-opacity="1.000000" fill-rule="evenodd"/>
</svg>
