<svg width="220.000000" height="80.000000" viewBox="0 0 220 80" fill="none" xmlns="http://www.w3.org/2000/svg" xmlns:xlink="http://www.w3.org/1999/xlink">
	<desc>
			Created with Pixso.
	</desc>
	<defs/>
	<rect id="Button" rx="15.000000" width="218.000000" height="78.000000" transform="translate(1.000000 1.000000)" fill="#F9F8F8" fill-opacity="1.000000"/>
	<path id="Explore More" d="M69.91 47L72.74 47L72.74 32L69.91 32L69.91 47ZM40.19 40.83L45.82 40.83L45.82 38.54L40.19 38.54L40.19 35.15L46.78 35.15L46.78 32.78L37.26 32.78L37.26 47L46.8 47L46.8 44.64L40.19 44.64L40.19 40.83ZM116.94 43.09L113.29 32.78L109.46 32.78L109.46 47L112.39 47L112.39 43.11L112.1 36.41L115.93 47L117.94 47L121.78 36.4L121.48 43.11L121.48 47L124.42 47L124.42 32.78L120.58 32.78L116.94 43.09ZM66.91 45.72Q68.02 44.25 68.02 41.81L68.02 41.66Q68.02 39.12 66.93 37.68Q66.5 37.1 65.92 36.75Q65.06 36.23 63.9 36.23Q63 36.23 62.29 36.59Q61.69 36.9 61.22 37.46L61.12 36.43L58.5 36.43L58.5 51.06L61.33 51.06L61.33 46.08Q61.71 46.51 62.19 46.78Q62.94 47.19 63.91 47.19Q64.91 47.19 65.69 46.78Q66.39 46.41 66.91 45.72ZM75.23 38.81Q74.63 40.04 74.63 41.61L74.63 41.74Q74.63 44 75.72 45.41Q75.85 45.57 75.99 45.73Q76.39 46.16 76.88 46.47Q78.03 47.19 79.64 47.19Q81.24 47.19 82.39 46.47Q82.88 46.16 83.28 45.72Q83.49 45.49 83.67 45.24Q84.64 43.87 84.64 41.82L84.62 41.1Q84.49 39.23 83.53 38.01Q83.34 37.76 83.11 37.54Q82.73 37.18 82.29 36.91Q81.16 36.23 79.62 36.23Q78.21 36.23 77.12 36.82Q77.05 36.86 76.98 36.91Q76.53 37.17 76.17 37.51Q75.6 38.06 75.23 38.81ZM91.3 39Q91.74 39 92.31 39.08L92.35 36.36Q91.94 36.23 91.47 36.23Q90.89 36.23 90.41 36.45Q89.64 36.8 89.12 37.69L89.04 36.43L86.38 36.43L86.38 47L89.2 47L89.2 40.08Q89.33 39.8 89.53 39.59Q90.11 39 91.3 39ZM95.44 46.45Q96.67 47.19 98.35 47.19Q99.67 47.19 100.75 46.69Q101.62 46.28 102.2 45.62Q102.35 45.46 102.47 45.29L101.08 43.73Q100.73 44.19 100.26 44.47Q99.53 44.91 98.53 44.91Q97.76 44.91 97.18 44.58Q96.97 44.45 96.79 44.29Q96.61 44.13 96.47 43.94Q96.07 43.39 95.97 42.63L102.69 42.63L102.69 41.48Q102.69 38.97 101.45 37.6Q101.12 37.24 100.73 36.97Q99.63 36.23 98.04 36.23Q96.86 36.23 95.89 36.69Q95.67 36.79 95.46 36.91Q95.11 37.13 94.8 37.4Q94.14 37.99 93.72 38.85Q93.1 40.1 93.1 41.69L93.1 41.97Q93.1 43.73 93.91 44.97Q94.19 45.4 94.56 45.76Q94.97 46.16 95.44 46.45ZM126.96 38.81Q126.36 40.04 126.36 41.61L126.36 41.74Q126.36 44 127.45 45.41Q127.58 45.57 127.72 45.73Q128.12 46.16 128.61 46.47Q129.76 47.19 131.37 47.19Q132.97 47.19 134.12 46.47Q134.6 46.16 135.01 45.72Q135.22 45.49 135.4 45.24Q136.37 43.87 136.37 41.82L136.35 41.1Q136.22 39.23 135.26 38.01Q135.07 37.76 134.84 37.54Q134.46 37.18 134.02 36.91Q132.89 36.23 131.35 36.23Q129.94 36.23 128.85 36.82Q128.78 36.86 128.71 36.91Q128.26 37.17 127.9 37.51Q127.33 38.06 126.96 38.81ZM143.03 39Q143.47 39 144.04 39.08L144.08 36.36Q143.67 36.23 143.2 36.23Q142.62 36.23 142.14 36.45Q141.37 36.8 140.85 37.69L140.77 36.43L138.1 36.43L138.1 47L140.93 47L140.93 40.08Q141.06 39.8 141.26 39.59Q141.84 39 143.03 39ZM147.17 46.45Q148.4 47.19 150.08 47.19Q151.39 47.19 152.48 46.69Q153.35 46.28 153.93 45.62Q154.07 45.46 154.2 45.29L152.81 43.73Q152.45 44.19 151.99 44.47Q151.26 44.91 150.26 44.91Q149.49 44.91 148.91 44.58Q148.7 44.45 148.52 44.29Q148.34 44.13 148.2 43.94Q147.8 43.39 147.69 42.63L154.42 42.63L154.42 41.48Q154.42 38.97 153.18 37.6Q152.85 37.24 152.45 36.97Q151.36 36.23 149.77 36.23Q148.58 36.23 147.61 36.69Q147.4 36.79 147.19 36.91Q146.84 37.13 146.53 37.4Q145.87 37.99 145.45 38.85Q144.83 40.1 144.83 41.69L144.83 41.97Q144.83 43.73 145.64 44.97Q145.92 45.4 146.29 45.76Q146.7 46.16 147.17 46.45ZM54.13 36.43L52.35 39.58L50.61 36.43L47.59 36.43L50.58 41.6L47.45 47L50.49 47L52.36 43.67L54.25 47L57.27 47L54.14 41.6L57.15 36.43L54.13 36.43ZM78.02 44.12Q77.45 43.32 77.45 41.82Q77.45 40.13 78.02 39.32Q78.27 38.97 78.61 38.77Q79.04 38.52 79.62 38.52Q80.2 38.52 80.64 38.77Q80.98 38.97 81.24 39.33Q81.82 40.14 81.82 41.61Q81.82 43.34 81.24 44.13Q80.99 44.47 80.65 44.67Q80.21 44.91 79.64 44.91Q79.01 44.91 78.56 44.64Q78.25 44.44 78.02 44.12ZM97.09 38.74Q97.5 38.52 98.03 38.52Q98.79 38.52 99.26 38.89Q99.34 38.96 99.41 39.03Q99.43 39.05 99.44 39.06Q99.9 39.57 99.92 40.48L99.92 40.71L96 40.71Q96.14 39.65 96.66 39.08Q96.86 38.88 97.09 38.74ZM129.75 44.12Q129.18 43.32 129.18 41.82Q129.18 40.13 129.75 39.32Q130 38.97 130.34 38.77Q130.77 38.52 131.35 38.52Q131.93 38.52 132.37 38.77Q132.71 38.97 132.97 39.33Q133.54 40.14 133.54 41.61Q133.54 43.34 132.97 44.13Q132.72 44.47 132.38 44.67Q131.94 44.91 131.37 44.91Q130.74 44.91 130.29 44.64Q129.98 44.44 129.75 44.12ZM148.82 38.74Q149.22 38.52 149.75 38.52Q150.52 38.52 150.99 38.89Q151.07 38.96 151.14 39.03Q151.16 39.05 151.17 39.06Q151.63 39.57 151.65 40.48L151.65 40.71L147.72 40.71Q147.87 39.65 148.39 39.08Q148.59 38.88 148.82 38.74ZM64.67 39.33Q65.19 40.13 65.19 41.6Q65.19 44.02 64.12 44.67Q63.72 44.91 63.17 44.91Q62.36 44.91 61.84 44.52Q61.53 44.27 61.33 43.87L61.33 39.54Q61.51 39.18 61.79 38.95Q62.3 38.53 63.15 38.53Q63.7 38.53 64.1 38.77Q64.43 38.96 64.67 39.33Z" fill="#274C5B" fill-opacity="1.000000" fill-rule="evenodd"/>
	<circle id="Ellipse 60" cx="174.500000" cy="39.500000" r="9.500000" fill="#335B6B" fill-opacity="1.000000"/>
	<path id="Vector" d="M174.47 36.12L177.87 39.19L174.47 42.25M177.4 39.19L170.51 39.19" stroke="#FFFFFF" stroke-opacity="1.000000" stroke-width="1.000000" stroke-linejoin="round" stroke-linecap="round"/>
	<rect id="Button" rx="15.000000" width="218.000000" height="78.000000" transform="translate(1.000000 1.000000)" stroke="#335B6B" stroke-opacity="1.000000" stroke-width="2.000000"/>
</svg>
